<?xml version="1.0" encoding="utf-8"?>
<!-- Generator: Adobe Illustrator 25.0.1, SVG Export Plug-In . SVG Version: 6.00 Build 0)  -->
<svg version="1.1" id="Layer_1" xmlns="http://www.w3.org/2000/svg" xmlns:xlink="http://www.w3.org/1999/xlink" x="0px" y="0px"
	 viewBox="0 0 420.5 73.8" style="enable-background:new 0 0 420.5 73.8;" xml:space="preserve">
<style type="text/css">
	.st0{fill:#FFFFFF;}
	.st1{fill:none;stroke:#B2B129;stroke-width:0.3282;stroke-miterlimit:10;}
	.st2{fill:#B2B129;}
</style>
<polygon class="st0" points="229.8,60.6 192,7.6 191.5,7.6 191.4,12.7 227.4,63.2 "/>
<polygon class="st1" points="229.8,60.6 192,7.6 191.5,7.6 191.4,12.7 227.4,63.2 "/>
<polygon class="st0" points="190.4,60.7 228.2,7.5 228.8,7.4 228.9,12.7 192.8,63.3 "/>
<polygon class="st1" points="190.4,60.7 228.2,7.5 228.8,7.4 228.9,12.7 192.8,63.3 "/>
<polygon class="st0" points="191.4,58.9 191.4,61.7 193.4,62.1 193.5,64.2 190.2,64.2 190.2,59.3 "/>
<polygon class="st1" points="191.4,58.9 191.4,61.7 193.4,62.1 193.5,64.2 190.2,64.2 190.2,59.3 "/>
<polygon class="st0" points="228.9,58.9 228.9,61.7 226.9,62.1 226.8,64.2 230.1,64.2 230.1,59.3 "/>
<polygon class="st1" points="228.9,58.9 228.9,61.7 226.9,62.1 226.8,64.2 230.1,64.2 230.1,59.3 "/>
<polygon class="st0" points="147.1,64.1 141,64.1 141,7.3 147.1,7.3 147.1,57.8 "/>
<polygon class="st1" points="147.1,64.1 141,64.1 141,7.3 147.1,7.3 147.1,57.8 "/>
<polygon class="st0" points="191.3,64.1 185.2,64.1 185.2,7.3 191.3,7.3 191.3,57.8 "/>
<polygon class="st1" points="191.3,64.1 185.2,64.1 185.2,7.3 191.3,7.3 191.3,57.8 "/>
<line class="st0" x1="185.1" y1="57.8" x2="191.2" y2="57.8"/>
<line class="st1" x1="185.1" y1="57.8" x2="191.2" y2="57.8"/>
<path class="st2" d="M146.5,2.9L146.5,2.9c-0.6,0-1.1-0.6-1.1-1.2V1.2c0-0.7,0.5-1.2,1.1-1.2c0.6,0,1.2,0.6,1.2,1.2v0.4
	C147.6,2.4,147.1,2.9,146.5,2.9"/>
<path class="st2" d="M141.7,2.9L141.7,2.9c-0.6,0-1.1-0.6-1.1-1.2V1.2c0-0.7,0.5-1.2,1.1-1.2c0.6,0,1.1,0.6,1.1,1.2v0.4
	C142.9,2.4,142.4,2.9,141.7,2.9"/>
<path class="st2" d="M190.5,2.9L190.5,2.9c-0.6,0-1.1-0.6-1.1-1.2V1.2c0-0.7,0.5-1.2,1.1-1.2c0.6,0,1.1,0.6,1.1,1.2v0.4
	C191.7,2.4,191.1,2.9,190.5,2.9"/>
<path class="st2" d="M185.8,2.9L185.8,2.9c-0.6,0-1.2-0.6-1.2-1.2V1.2c0-0.7,0.5-1.2,1.2-1.2c0.6,0,1.1,0.6,1.1,1.2v0.4
	C186.9,2.4,186.4,2.9,185.8,2.9"/>
<path class="st2" d="M146.5,70.8L146.5,70.8c-0.6,0-1.1-0.6-1.1-1.2v-0.4c0-0.7,0.5-1.2,1.1-1.2c0.6,0,1.2,0.6,1.2,1.2v0.4
	C147.6,70.3,147.1,70.8,146.5,70.8"/>
<path class="st2" d="M141.7,70.8L141.7,70.8c-0.6,0-1.1-0.6-1.1-1.2v-0.4c0-0.7,0.5-1.2,1.1-1.2c0.6,0,1.1,0.6,1.1,1.2v0.4
	C142.9,70.3,142.4,70.8,141.7,70.8"/>
<path class="st2" d="M190.6,70.8L190.6,70.8c-0.6,0-1.2-0.6-1.2-1.2v-0.4c0-0.7,0.5-1.2,1.2-1.2c0.6,0,1.1,0.6,1.1,1.2v0.4
	C191.8,70.3,191.3,70.8,190.6,70.8"/>
<path class="st2" d="M185.9,70.8L185.9,70.8c-0.6,0-1.2-0.6-1.2-1.2v-0.4c0-0.7,0.5-1.2,1.2-1.2c0.6,0,1.1,0.6,1.1,1.2v0.4
	C187.1,70.3,186.6,70.8,185.9,70.8"/>
<polygon class="st0" points="144.7,7.5 141.6,11.2 139.3,7.5 "/>
<polygon class="st1" points="144.7,7.5 141.6,11.2 139.3,7.5 "/>
<polygon class="st0" points="102.5,64.1 96.5,64.1 96.5,7.3 102.5,7.3 102.5,57.8 "/>
<polygon class="st1" points="102.5,64.1 96.5,64.1 96.5,7.3 102.5,7.3 102.5,57.8 "/>
<polygon class="st0" points="58.5,64.1 52.5,64.1 52.5,7.3 58.5,7.3 58.5,57.8 "/>
<polygon class="st1" points="58.5,64.1 52.5,64.1 52.5,7.3 58.5,7.3 58.5,57.8 "/>
<path class="st2" d="M102.3,2.9L102.3,2.9c-0.6,0-1.2-0.6-1.2-1.2V1.2c0-0.7,0.5-1.2,1.2-1.2c0.6,0,1.1,0.6,1.1,1.2v0.4
	C103.4,2.4,102.9,2.9,102.3,2.9"/>
<path class="st2" d="M97.5,2.9L97.5,2.9c-0.6,0-1.2-0.6-1.2-1.2V1.2c0-0.7,0.5-1.2,1.2-1.2c0.6,0,1.1,0.6,1.1,1.2v0.4
	C98.7,2.4,98.2,2.9,97.5,2.9"/>
<path class="st2" d="M58.1,2.9L58.1,2.9c-0.6,0-1.1-0.6-1.1-1.2V1.2c0-0.7,0.5-1.2,1.1-1.2c0.6,0,1.1,0.6,1.1,1.2v0.4
	C59.2,2.4,58.7,2.9,58.1,2.9"/>
<path class="st2" d="M53.4,2.9L53.4,2.9c-0.6,0-1.1-0.6-1.1-1.2V1.2c0-0.7,0.5-1.2,1.1-1.2c0.6,0,1.1,0.6,1.1,1.2v0.4
	C54.5,2.4,54,2.9,53.4,2.9"/>
<path class="st2" d="M102.1,70.8L102.1,70.8c-0.6,0-1.1-0.6-1.1-1.2v-0.4c0-0.7,0.5-1.2,1.1-1.2c0.6,0,1.1,0.6,1.1,1.2v0.4
	C103.2,70.3,102.7,70.8,102.1,70.8"/>
<path class="st2" d="M97.4,70.8L97.4,70.8c-0.6,0-1.1-0.6-1.1-1.2v-0.4c0-0.7,0.5-1.2,1.1-1.2c0.6,0,1.1,0.6,1.1,1.2v0.4
	C98.5,70.3,98,70.8,97.4,70.8"/>
<path class="st2" d="M58.3,70.8L58.3,70.8c-0.6,0-1.2-0.6-1.2-1.2v-0.4c0-0.7,0.5-1.2,1.2-1.2c0.6,0,1.1,0.6,1.1,1.2v0.4
	C59.4,70.3,58.9,70.8,58.3,70.8"/>
<path class="st2" d="M53.6,70.8L53.6,70.8c-0.6,0-1.2-0.6-1.2-1.2v-0.4c0-0.7,0.5-1.2,1.2-1.2c0.6,0,1.1,0.6,1.1,1.2v0.4
	C54.7,70.3,54.2,70.8,53.6,70.8"/>
<polygon class="st0" points="95.7,8.1 58.4,59.2 58.4,62 60.2,62.3 97.7,11.3 "/>
<polygon class="st1" points="95.7,8.1 58.4,59.2 58.4,62 60.2,62.3 97.7,11.3 "/>
<polygon class="st0" points="100.6,7.5 97.7,11.2 95.4,7.5 "/>
<polygon class="st1" points="100.6,7.5 97.7,11.2 95.4,7.5 "/>
<polygon class="st0" points="139.7,8.1 102.4,59.2 102.4,62 104.2,62.3 141.7,11.3 "/>
<polygon class="st1" points="139.7,8.1 102.4,59.2 102.4,62 104.2,62.3 141.7,11.3 "/>
<polygon class="st0" points="189.1,7.5 186.1,11.2 183.8,7.5 "/>
<polygon class="st1" points="189.1,7.5 186.1,11.2 183.8,7.5 "/>
<polygon class="st0" points="184.1,8.1 146.7,59.3 146.7,62.1 148.7,62.3 186.1,11.3 "/>
<polygon class="st1" points="184.1,8.1 146.7,59.3 146.7,62.1 148.7,62.3 186.1,11.3 "/>
<polygon class="st0" points="54.5,11.6 17.2,63.6 12.7,60.2 50.8,7.4 "/>
<polygon class="st1" points="54.5,11.6 17.2,63.6 12.7,60.2 50.8,7.4 "/>
<path class="st0" d="M57.7,7.5l-3.2,4.1L51,7.5C51,7.5,56.4,7.5,57.7,7.5"/>
<path class="st1" d="M57.7,7.5l-3.2,4.1L51,7.5C51,7.5,56.4,7.5,57.7,7.5z"/>
<path class="st0" d="M10.2,63.6l2.5-3.5l4.4,3.4C17.1,63.6,11.4,63.7,10.2,63.6"/>
<path class="st1" d="M10.2,63.6l2.5-3.5l4.4,3.4C17.1,63.6,11.4,63.7,10.2,63.6z"/>
<polygon class="st0" points="102.5,58.9 102.5,61.7 104.5,62.1 104.6,64.2 101.3,64.2 101.3,59.3 "/>
<polygon class="st1" points="102.5,58.9 102.5,61.7 104.5,62.1 104.6,64.2 101.3,64.2 101.3,59.3 "/>
<polygon class="st0" points="102.5,64.1 96.5,64.1 96.5,57.6 102.5,57.6 102.5,63.4 "/>
<polygon class="st1" points="102.5,64.1 96.5,64.1 96.5,57.6 102.5,57.6 102.5,63.4 "/>
<polygon class="st0" points="58.5,58.9 58.5,61.7 60.6,62.1 60.6,64.2 57.4,64.2 57.4,59.3 "/>
<polygon class="st1" points="58.5,58.9 58.5,61.7 60.6,62.1 60.6,64.2 57.4,64.2 57.4,59.3 "/>
<polygon class="st0" points="58.5,64.1 52.5,64.1 52.5,57.6 58.5,57.6 58.5,63.4 "/>
<polygon class="st1" points="58.5,64.1 52.5,64.1 52.5,57.6 58.5,57.6 58.5,63.4 "/>
<polygon class="st0" points="147.1,58.9 147.1,61.7 149.2,62.1 149.2,64.2 145.9,64.2 145.9,59.3 "/>
<polygon class="st1" points="147.1,58.9 147.1,61.7 149.2,62.1 149.2,64.2 145.9,64.2 145.9,59.3 "/>
<polygon class="st0" points="147.1,64.1 141.1,64.1 141.1,57.6 147.1,57.6 147.1,63.4 "/>
<polygon class="st1" points="147.1,64.1 141.1,64.1 141.1,57.6 147.1,57.6 147.1,63.4 "/>
<rect x="50.6" y="1.7" class="st0" width="151.2" height="5.7"/>
<rect x="50.6" y="1.7" class="st1" width="151.2" height="5.7"/>
<polygon class="st0" points="273.2,64.1 279.2,64.1 279.2,7.3 273.2,7.3 273.2,57.8 "/>
<polygon class="st1" points="273.2,64.1 279.2,64.1 279.2,7.3 273.2,7.3 273.2,57.8 "/>
<polygon class="st0" points="229,64.1 235,64.1 235,7.3 229,7.3 229,57.8 "/>
<polygon class="st1" points="229,64.1 235,64.1 235,7.3 229,7.3 229,57.8 "/>
<line class="st0" x1="235.1" y1="57.8" x2="229" y2="57.8"/>
<line class="st1" x1="235.1" y1="57.8" x2="229" y2="57.8"/>
<path class="st2" d="M273.8,2.9L273.8,2.9c0.6,0,1.1-0.6,1.1-1.2V1.2c0-0.7-0.5-1.2-1.1-1.2c-0.6,0-1.1,0.6-1.1,1.2v0.4
	C272.6,2.4,273.1,2.9,273.8,2.9"/>
<path class="st2" d="M278.5,2.9L278.5,2.9c0.6,0,1.1-0.6,1.1-1.2V1.2c0-0.7-0.5-1.2-1.1-1.2c-0.6,0-1.1,0.6-1.1,1.2v0.4
	C277.3,2.4,277.9,2.9,278.5,2.9"/>
<path class="st2" d="M229.7,2.9L229.7,2.9c0.6,0,1.1-0.6,1.1-1.2V1.2c0-0.7-0.5-1.2-1.1-1.2c-0.6,0-1.1,0.6-1.1,1.2v0.4
	C228.6,2.4,229.1,2.9,229.7,2.9"/>
<path class="st2" d="M234.4,2.9L234.4,2.9c0.6,0,1.2-0.6,1.2-1.2V1.2c0-0.7-0.5-1.2-1.2-1.2c-0.6,0-1.1,0.6-1.1,1.2v0.4
	C233.3,2.4,233.8,2.9,234.4,2.9"/>
<path class="st2" d="M273.8,70.8L273.8,70.8c0.6,0,1.1-0.6,1.1-1.2v-0.4c0-0.7-0.5-1.2-1.1-1.2c-0.6,0-1.1,0.6-1.1,1.2v0.4
	C272.6,70.3,273.1,70.8,273.8,70.8"/>
<path class="st2" d="M278.5,70.8L278.5,70.8c0.6,0,1.1-0.6,1.1-1.2v-0.4c0-0.7-0.5-1.2-1.1-1.2c-0.6,0-1.1,0.6-1.1,1.2v0.4
	C277.3,70.3,277.9,70.8,278.5,70.8"/>
<path class="st2" d="M229.6,70.8L229.6,70.8c0.6,0,1.2-0.6,1.2-1.2v-0.4c0-0.7-0.5-1.2-1.2-1.2c-0.6,0-1.1,0.6-1.1,1.2v0.4
	C228.4,70.3,228.9,70.8,229.6,70.8"/>
<path class="st2" d="M234.3,70.8L234.3,70.8c0.6,0,1.1-0.6,1.1-1.2v-0.4c0-0.7-0.5-1.2-1.1-1.2c-0.6,0-1.1,0.6-1.1,1.2v0.4
	C233.2,70.3,233.7,70.8,234.3,70.8"/>
<polygon class="st0" points="275.6,7.5 278.6,11.2 280.9,7.5 "/>
<polygon class="st1" points="275.6,7.5 278.6,11.2 280.9,7.5 "/>
<polygon class="st0" points="317.7,64.1 323.8,64.1 323.8,7.3 317.7,7.3 317.7,57.8 "/>
<polygon class="st1" points="317.7,64.1 323.8,64.1 323.8,7.3 317.7,7.3 317.7,57.8 "/>
<polygon class="st0" points="361.7,64.1 367.7,64.1 367.7,7.3 361.7,7.3 361.7,57.8 "/>
<polygon class="st1" points="361.7,64.1 367.7,64.1 367.7,7.3 361.7,7.3 361.7,57.8 "/>
<path class="st2" d="M318,2.9L318,2.9c0.6,0,1.2-0.6,1.2-1.2V1.2c0-0.7-0.5-1.2-1.2-1.2c-0.6,0-1.1,0.6-1.1,1.2v0.4
	C316.8,2.4,317.3,2.9,318,2.9"/>
<path class="st2" d="M322.7,2.9L322.7,2.9c0.6,0,1.1-0.6,1.1-1.2V1.2c0-0.7-0.5-1.2-1.1-1.2c-0.6,0-1.1,0.6-1.1,1.2v0.4
	C321.6,2.4,322.1,2.9,322.7,2.9"/>
<path class="st2" d="M362.1,2.9L362.1,2.9c0.6,0,1.1-0.6,1.1-1.2V1.2c0-0.7-0.5-1.2-1.1-1.2c-0.6,0-1.1,0.6-1.1,1.2v0.4
	C361,2.4,361.5,2.9,362.1,2.9"/>
<path class="st2" d="M366.9,2.9L366.9,2.9c0.6,0,1.1-0.6,1.1-1.2V1.2c0-0.7-0.5-1.2-1.1-1.2c-0.6,0-1.1,0.6-1.1,1.2v0.4
	C365.7,2.4,366.2,2.9,366.9,2.9"/>
<path class="st2" d="M318.1,70.8L318.1,70.8c0.6,0,1.1-0.6,1.1-1.2v-0.4c0-0.7-0.5-1.2-1.1-1.2c-0.6,0-1.1,0.6-1.1,1.2v0.4
	C317,70.3,317.5,70.8,318.1,70.8"/>
<path class="st2" d="M322.9,70.8L322.9,70.8c0.6,0,1.1-0.6,1.1-1.2v-0.4c0-0.7-0.5-1.2-1.1-1.2c-0.6,0-1.1,0.6-1.1,1.2v0.4
	C321.7,70.3,322.2,70.8,322.9,70.8"/>
<path class="st2" d="M361.9,70.8L361.9,70.8c0.6,0,1.1-0.6,1.1-1.2v-0.4c0-0.7-0.5-1.2-1.1-1.2c-0.6,0-1.1,0.6-1.1,1.2v0.4
	C360.8,70.3,361.3,70.8,361.9,70.8"/>
<path class="st2" d="M366.7,70.8L366.7,70.8c0.6,0,1.2-0.6,1.2-1.2v-0.4c0-0.7-0.5-1.2-1.2-1.2c-0.6,0-1.1,0.6-1.1,1.2v0.4
	C365.5,70.3,366,70.8,366.7,70.8"/>
<polygon class="st0" points="324.6,8.1 361.9,59.2 361.9,62 360,62.3 322.6,11.3 "/>
<polygon class="st1" points="324.6,8.1 361.9,59.2 361.9,62 360,62.3 322.6,11.3 "/>
<polygon class="st0" points="319.6,7.5 322.5,11.2 324.8,7.5 "/>
<polygon class="st1" points="319.6,7.5 322.5,11.2 324.8,7.5 "/>
<polygon class="st0" points="280.5,8.1 317.9,59.2 317.9,62 316,62.3 278.6,11.3 "/>
<polygon class="st1" points="280.5,8.1 317.9,59.2 317.9,62 316,62.3 278.6,11.3 "/>
<polygon class="st0" points="231.1,7.5 234.1,11.2 236.5,7.5 "/>
<polygon class="st1" points="231.1,7.5 234.1,11.2 236.5,7.5 "/>
<polygon class="st0" points="236.1,8.1 273.5,59.3 273.5,62.1 271.5,62.3 234.1,11.3 "/>
<polygon class="st1" points="236.1,8.1 273.5,59.3 273.5,62.1 271.5,62.3 234.1,11.3 "/>
<polygon class="st0" points="365.8,11.6 403,63.6 407.5,60.2 369.4,7.4 "/>
<polygon class="st1" points="365.8,11.6 403,63.6 407.5,60.2 369.4,7.4 "/>
<path class="st0" d="M362.6,7.5l3.2,4.1l3.5-4.2C369.3,7.5,363.8,7.5,362.6,7.5"/>
<path class="st1" d="M362.6,7.5l3.2,4.1l3.5-4.2C369.3,7.5,363.8,7.5,362.6,7.5z"/>
<path class="st0" d="M410.1,63.6l-2.5-3.5l-4.4,3.4C403.1,63.6,408.8,63.7,410.1,63.6"/>
<path class="st1" d="M410.1,63.6l-2.5-3.5l-4.4,3.4C403.1,63.6,408.8,63.7,410.1,63.6z"/>
<polygon class="st0" points="317.7,58.9 317.7,61.7 315.7,62.1 315.7,64.2 318.9,64.2 318.9,59.3 "/>
<polygon class="st1" points="317.7,58.9 317.7,61.7 315.7,62.1 315.7,64.2 318.9,64.2 318.9,59.3 "/>
<polygon class="st0" points="317.7,64.1 323.8,64.1 323.8,57.6 317.7,57.6 317.7,63.4 "/>
<polygon class="st1" points="317.7,64.1 323.8,64.1 323.8,57.6 317.7,57.6 317.7,63.4 "/>
<polygon class="st0" points="361.7,58.9 361.7,61.7 359.6,62.1 359.6,64.2 362.9,64.2 362.9,59.3 "/>
<polygon class="st1" points="361.7,58.9 361.7,61.7 359.6,62.1 359.6,64.2 362.9,64.2 362.9,59.3 "/>
<polygon class="st0" points="361.7,64.1 367.8,64.1 367.8,57.6 361.7,57.6 361.7,63.4 "/>
<polygon class="st1" points="361.7,64.1 367.8,64.1 367.8,57.6 361.7,57.6 361.7,63.4 "/>
<polygon class="st0" points="273.1,58.9 273.1,61.7 271.1,62.1 271,64.2 274.3,64.2 274.3,59.3 "/>
<polygon class="st1" points="273.1,58.9 273.1,61.7 271.1,62.1 271,64.2 274.3,64.2 274.3,59.3 "/>
<polygon class="st0" points="273.1,64.1 279.1,64.1 279.1,57.6 273.1,57.6 273.1,63.4 "/>
<polygon class="st1" points="273.1,64.1 279.1,64.1 279.1,57.6 273.1,57.6 273.1,63.4 "/>
<rect x="218.4" y="1.7" class="st0" width="151.2" height="5.7"/>
<rect x="218.4" y="1.7" class="st1" width="151.2" height="5.7"/>
<rect x="0.2" y="63.9" class="st0" width="420.1" height="4.8"/>
<rect x="0.2" y="63.9" class="st1" width="420.1" height="4.8"/>
<rect x="111.5" y="64" class="st0" width="22.9" height="4.8"/>
<rect x="111.5" y="64" class="st1" width="22.9" height="4.8"/>
<rect x="0.2" y="64" class="st0" width="22.6" height="4.8"/>
<rect x="0.2" y="64" class="st1" width="22.6" height="4.8"/>
<rect x="286.3" y="64" class="st0" width="22.9" height="4.8"/>
<rect x="286.3" y="64" class="st1" width="22.9" height="4.8"/>
<path class="st0" d="M0.2,68.8v1.3c0,0,0.4,3.4,4.4,3.4h6.3H12h6.3c4,0,4.4-3.4,4.4-3.4v-1.3H0.2z"/>
<path class="st1" d="M0.2,68.8v1.3c0,0,0.4,3.4,4.4,3.4h6.3H12h6.3c4,0,4.4-3.4,4.4-3.4v-1.3H0.2z"/>
<rect x="397.7" y="64" class="st0" width="22.6" height="4.8"/>
<rect x="397.7" y="64" class="st1" width="22.6" height="4.8"/>
<path class="st0" d="M420.3,68.8v1.3c0,0-0.4,3.4-4.4,3.4h-6.3h-1.1h-6.3c-4,0-4.4-3.4-4.4-3.4v-1.3H420.3z"/>
<path class="st1" d="M420.3,68.8v1.3c0,0-0.4,3.4-4.4,3.4h-6.3h-1.1h-6.3c-4,0-4.4-3.4-4.4-3.4v-1.3H420.3z"/>
<line class="st1" x1="201.8" y1="1.7" x2="218.6" y2="1.7"/>
<line class="st1" x1="201.8" y1="2.6" x2="218.6" y2="2.6"/>
<line class="st1" x1="201.8" y1="3.6" x2="218.6" y2="3.6"/>
<line class="st1" x1="201.8" y1="4.5" x2="218.6" y2="4.5"/>
<line class="st1" x1="201.8" y1="5.4" x2="218.6" y2="5.4"/>
<line class="st1" x1="201.8" y1="6.4" x2="218.6" y2="6.4"/>
<line class="st1" x1="201.8" y1="7.3" x2="218.6" y2="7.3"/>
</svg>
