<svg height='100px' width='100px'  fill="#ffffff" xmlns="http://www.w3.org/2000/svg" xmlns:xlink="http://www.w3.org/1999/xlink" version="1.1" viewBox="0 0 96 96" x="0px" y="0px"><path d="M37.196 70.172c-9.080 0-17.616-3.536-24.040-9.948-13.256-13.256-13.256-34.836 0-48.084 6.42-6.416 14.96-9.964 24.040-9.964 9.084 0 17.616 3.54 24.040 9.964 13.256 13.252 13.256 34.82 0 48.084-6.424 6.412-14.96 9.948-24.040 9.948zM37.196 6.172c-8.012 0-15.544 3.12-21.212 8.792-11.696 11.696-11.696 30.728 0 42.42 5.668 5.664 13.2 8.776 21.212 8.776s15.548-3.112 21.212-8.776c11.696-11.704 11.696-30.736 0-42.42-5.668-5.672-13.2-8.792-21.212-8.792z" fill="#ffffff"></path><path d="M36.96 51.996c-1.104 0-2-0.9-2-2v-28c0-1.1 0.896-2 2-2s2 0.9 2 2v28c0 1.1-0.896 2-2 2z" fill="#ffffff"></path><path d="M50.96 37.996h-28c-1.104 0-2-0.9-2-2s0.896-2 2-2h28c1.1 0 2 0.9 2 2s-0.896 2-2 2z" fill="#ffffff"></path><path d="M86.072 93.824c-1.708 0-3.312-0.668-4.524-1.876l-27.652-27.76 9.344-9.38 27.676 27.756c2.5 2.5 2.5 6.572 0 9.072l-0.32 0.312c-1.208 1.212-2.816 1.876-4.524 1.876zM59.544 64.188l24.84 24.932c0.908 0.904 2.48 0.908 3.392 0l0.32-0.32c0.932-0.932 0.932-2.46 0-3.412l-24.848-24.916-3.704 3.716z" fill="#ffffff"></path></svg>