<?xml version="1.0" encoding="utf-8"?>
<!-- Generator: Adobe Illustrator 24.3.0, SVG Export Plug-In . SVG Version: 6.00 Build 0)  -->
<svg version="1.1" id="Layer_1" xmlns="http://www.w3.org/2000/svg" xmlns:xlink="http://www.w3.org/1999/xlink" x="0px" y="0px"
	 viewBox="0 0 801 801" style="enable-background:new 0 0 801 801;" xml:space="preserve">
<style type="text/css">
	.st0{fill:#FFFFFF;}
</style>
<g>
	
		<rect x="-145.9" y="380.5" transform="matrix(0.7071 -0.7071 0.7071 0.7071 -165.8994 400.5201)" class="st0" width="1092.8" height="40"/>
</g>
<g>
	<path class="st0" d="M76.4,57.6v66.8h-8.8v-58H52.4v-8.8H76.4z M91.6,66.4H77.8v-8.8h13.8V66.4z"/>
	<path class="st0" d="M114.4,57.6v66.8h-8.8V57.6H114.4z"/>
	<path class="st0" d="M142.2,68.8v55.6h-8.8v-68h0.8L142.2,68.8z M160.5,113.8l-16.9-26.2V71l17.3,27.8l26.7-42.4h0.8v68h-8.8V86.7
		l-18.3,27.1H160.5z"/>
	<path class="st0" d="M215.2,124.4h-8.8V57.6h8.8V124.4z M223.2,57.6c3.1,0,5.9,0.5,8.6,1.6c2.6,1.1,4.9,2.6,6.8,4.6l-6.3,6.3
		c-1.1-1.1-2.4-2-3.9-2.8c-1.5-0.7-3.2-1-5.1-1h-6.6v-8.8H223.2z M244,105.8c0,2.5-0.4,4.7-1.1,6.8c-0.8,2-1.8,3.8-3.2,5.4l-6.3-6.3
		c0.5-0.8,1-1.7,1.3-2.7c0.3-1,0.5-2,0.5-3.1c0-3-1.1-5.4-3.2-7.1c-2.2-1.8-4.9-2.6-8.3-2.6h-7v-8.8h7c3.4,0,6-1.1,7.9-3.3
		s2.9-4.8,2.9-7.9c0-0.9-0.1-1.7-0.4-2.5c-0.2-0.8-0.6-1.5-1-2.1l6.4-6.4c1.2,1.5,2.1,3.1,2.8,5c0.7,1.9,1,3.9,1,6
		c0,4-0.7,7.2-2.2,9.6c-1.5,2.4-3.3,4.4-5.6,5.9c2.3,1.1,4.3,2.8,6,5.1C243.1,98.9,244,102,244,105.8z M216.6,124.4v-8.8h7.4
		c1.7,0,3.2-0.3,4.7-0.8c1.5-0.5,2.7-1.3,3.8-2.3l6.3,6.4c-1.8,1.8-4,3.2-6.5,4.1c-2.6,0.9-5.3,1.4-8.2,1.4H216.6z"/>
	<path class="st0" d="M260.5,124.4V57.6h8.8v29.6h22.4V96h-22.4v28.4H260.5z M296.5,66.4h-25.8v-8.8h25.8V66.4z M296.5,124.4h-25.8
		v-8.8h25.8V124.4z"/>
	<path class="st0" d="M320.8,57.6v66.8H312V57.6H320.8z M322.2,66.4v-8.8h9.8c2.7,0,5.3,0.5,7.8,1.5c2.4,1,4.5,2.4,6.4,4.2
		c1.8,1.8,3.2,3.8,4.3,6.2c1.1,2.4,1.6,5,1.6,7.7h-8.8c0-3.1-1.1-5.6-3.3-7.8c-2.2-2.1-4.8-3.1-7.9-3.1H322.2z M332,89.6
		c3.1,0,5.7-1.1,7.9-3.4c2.2-2.3,3.3-4.8,3.3-7.5h8.8c0,2.2-0.4,4.4-1.1,6.5c-0.7,2.1-1.8,4.1-3.1,5.8c-1.3,1.7-2.9,3.2-4.8,4.4
		c-1.8,1.2-3.9,2.1-6.1,2.6l15.1,25.2v1.2h-9.6l-15.2-26h-5v-8.8H332z"/>
</g>
<g>
	<path class="st0" d="M76.4,138.9v66.8h-8.8v-58H52.4v-8.8H76.4z M91.6,147.7H77.8v-8.8h13.8V147.7z"/>
	<path class="st0" d="M113.4,138.9v66.8h-8.8v-66.8H113.4z M114.8,147.7v-8.8h9.8c2.7,0,5.3,0.5,7.8,1.5c2.4,1,4.5,2.4,6.4,4.2
		c1.8,1.8,3.2,3.8,4.3,6.2c1.1,2.4,1.6,5,1.6,7.7h-8.8c0-3.1-1.1-5.6-3.3-7.8c-2.2-2.1-4.8-3.1-7.9-3.1H114.8z M124.6,170.9
		c3.1,0,5.7-1.1,7.9-3.4c2.2-2.3,3.3-4.8,3.3-7.5h8.8c0,2.2-0.4,4.4-1.1,6.5c-0.7,2.1-1.8,4.1-3.1,5.8c-1.3,1.7-2.9,3.2-4.8,4.4
		c-1.8,1.2-3.9,2.1-6.1,2.6l15.1,25.2v1.2H135l-15.2-26h-5v-8.8H124.6z"/>
	<path class="st0" d="M167.4,138.9v48c0,1.7,0.4,3.2,1.1,4.7c0.7,1.5,1.6,2.7,2.8,3.8l-6.2,6.2c-1.9-1.9-3.5-4.1-4.6-6.6
		c-1.2-2.5-1.8-5.2-1.8-8.1v-48H167.4z M178.6,206.9c-2.3,0-4.6-0.4-6.8-1.2c-2.2-0.8-4.1-1.9-5.8-3.2l6.2-6.3
		c0.9,0.6,1.8,1.1,2.9,1.4c1.1,0.3,2.2,0.5,3.4,0.5c1.1,0,2.2-0.2,3.3-0.5c1.1-0.3,2-0.8,2.9-1.4l6.3,6.3c-1.7,1.3-3.7,2.4-5.8,3.2
		C183.2,206.5,180.9,206.9,178.6,206.9z M198.6,138.9v48c0,2.9-0.6,5.6-1.8,8.1c-1.2,2.5-2.8,4.7-4.8,6.6l-6.2-6.2
		c1.2-1.1,2.2-2.3,2.9-3.8c0.7-1.5,1.1-3,1.1-4.7v-48H198.6z"/>
	<path class="st0" d="M234.4,146.5c-2.8,0.1-5.2,1.1-7.2,2.8c-2,1.7-3.1,4-3.2,6.8h-8.9c0.1-2.6,0.6-5,1.7-7.2
		c1.1-2.2,2.5-4.1,4.2-5.8c1.7-1.6,3.8-2.9,6.1-3.9c2.3-0.9,4.8-1.4,7.3-1.5V146.5z M246.3,187.2c-0.1-2.4-1-4.3-2.6-5.6
		c-1.6-1.4-3.5-2.5-5.9-3.4l-7.8-3c-1.9-0.7-3.7-1.6-5.5-2.5c-1.8-1-3.3-2.2-4.7-3.6c-1.4-1.4-2.5-3.1-3.4-5
		c-0.9-1.9-1.4-4.2-1.5-6.7h8.9c0.2,2.3,1.1,4.1,2.8,5.6c1.7,1.5,3.7,2.7,6,3.5l8.3,3.1c1.5,0.6,3.1,1.3,4.8,2.2
		c1.6,0.9,3.1,2,4.5,3.3c1.3,1.4,2.4,3,3.3,5c0.9,1.9,1.4,4.3,1.5,7H246.3z M223.9,186.9c0,2.9,1,5.5,3.1,7.6
		c2.1,2.2,4.5,3.3,7.4,3.4v8.9c-2.7-0.1-5.2-0.7-7.5-1.8c-2.3-1.1-4.4-2.6-6.1-4.4c-1.7-1.8-3.1-3.9-4.2-6.3c-1-2.4-1.5-4.9-1.5-7.6
		v-2.6h8.8V186.9z M246.3,157.7c0-3-1-5.6-3.1-7.7c-2-2.1-4.5-3.3-7.4-3.5v-8.8c2.7,0.1,5.2,0.6,7.5,1.8c2.4,1.1,4.4,2.5,6.1,4.4
		c1.7,1.8,3.1,3.9,4.1,6.3s1.5,4.9,1.5,7.6v2h-8.8V157.7z M235.8,198.1c2.9-0.1,5.3-1.1,7.2-2.8c2-1.7,3-4,3.2-6.7h8.8
		c-0.1,2.6-0.6,5-1.6,7.2c-1,2.2-2.4,4.1-4.1,5.7c-1.7,1.6-3.8,2.9-6.1,3.9c-2.3,1-4.8,1.5-7.4,1.6V198.1z"/>
	<path class="st0" d="M287.9,146.5c-2.8,0.1-5.2,1.1-7.2,2.8c-2,1.7-3.1,4-3.2,6.8h-8.9c0.1-2.6,0.6-5,1.7-7.2
		c1.1-2.2,2.5-4.1,4.2-5.8c1.7-1.6,3.8-2.9,6.1-3.9c2.3-0.9,4.8-1.4,7.3-1.5V146.5z M299.8,187.2c-0.1-2.4-1-4.3-2.6-5.6
		c-1.6-1.4-3.5-2.5-5.9-3.4l-7.8-3c-1.9-0.7-3.7-1.6-5.5-2.5c-1.8-1-3.3-2.2-4.7-3.6c-1.4-1.4-2.5-3.1-3.4-5
		c-0.9-1.9-1.4-4.2-1.5-6.7h8.9c0.2,2.3,1.1,4.1,2.8,5.6c1.7,1.5,3.7,2.7,6,3.5l8.3,3.1c1.5,0.6,3.1,1.3,4.8,2.2
		c1.6,0.9,3.1,2,4.5,3.3c1.3,1.4,2.4,3,3.3,5c0.9,1.9,1.4,4.3,1.5,7H299.8z M277.4,186.9c0,2.9,1,5.5,3.1,7.6
		c2.1,2.2,4.5,3.3,7.4,3.4v8.9c-2.7-0.1-5.2-0.7-7.5-1.8c-2.3-1.1-4.4-2.6-6.1-4.4c-1.7-1.8-3.1-3.9-4.2-6.3c-1-2.4-1.5-4.9-1.5-7.6
		v-2.6h8.8V186.9z M299.8,157.7c0-3-1-5.6-3.1-7.7c-2-2.1-4.5-3.3-7.4-3.5v-8.8c2.7,0.1,5.2,0.6,7.5,1.8c2.4,1.1,4.4,2.5,6.1,4.4
		c1.7,1.8,3.1,3.9,4.1,6.3s1.5,4.9,1.5,7.6v2h-8.8V157.7z M289.3,198.1c2.9-0.1,5.3-1.1,7.2-2.8c2-1.7,3-4,3.2-6.7h8.8
		c-0.1,2.6-0.6,5-1.6,7.2c-1,2.2-2.4,4.1-4.1,5.7c-1.7,1.6-3.8,2.9-6.1,3.9c-2.3,1-4.8,1.5-7.4,1.6V198.1z"/>
</g>
<g>
	<path class="st0" d="M66.2,287h-8.8v-66.8h8.8V287z M74.2,220.2c3.1,0,5.9,0.5,8.6,1.6c2.6,1.1,4.9,2.6,6.8,4.6l-6.3,6.3
		c-1.1-1.1-2.4-2-3.9-2.8c-1.5-0.7-3.2-1-5.1-1h-6.6v-8.8H74.2z M95,268.4c0,2.5-0.4,4.7-1.1,6.8c-0.8,2-1.8,3.8-3.2,5.4l-6.3-6.3
		c0.5-0.8,1-1.7,1.3-2.7c0.3-1,0.5-2,0.5-3.1c0-3-1.1-5.4-3.2-7.1c-2.2-1.8-4.9-2.6-8.3-2.6h-7v-8.8h7c3.4,0,6-1.1,7.9-3.3
		s2.9-4.8,2.9-7.9c0-0.9-0.1-1.7-0.4-2.5c-0.2-0.8-0.6-1.5-1-2.1l6.4-6.4c1.2,1.5,2.1,3.1,2.8,5c0.7,1.9,1,3.9,1,6
		c0,4-0.7,7.2-2.2,9.6c-1.5,2.4-3.3,4.4-5.6,5.9c2.3,1.1,4.3,2.8,6,5.1C94.1,261.5,95,264.6,95,268.4z M67.6,287v-8.8H75
		c1.7,0,3.2-0.3,4.7-0.8c1.5-0.5,2.7-1.3,3.8-2.3l6.3,6.4c-1.8,1.8-4,3.2-6.5,4.1c-2.6,0.9-5.3,1.4-8.2,1.4H67.6z"/>
	<path class="st0" d="M120.3,220.2V287h-8.8v-66.8H120.3z M121.7,229v-8.8h9.8c2.7,0,5.3,0.5,7.8,1.5c2.4,1,4.5,2.4,6.4,4.2
		c1.8,1.8,3.2,3.8,4.3,6.2c1.1,2.4,1.6,5,1.6,7.7h-8.8c0-3.1-1.1-5.6-3.3-7.8c-2.2-2.1-4.8-3.1-7.9-3.1H121.7z M131.5,252.2
		c3.1,0,5.7-1.1,7.9-3.4c2.2-2.3,3.3-4.8,3.3-7.5h8.8c0,2.2-0.4,4.4-1.1,6.5c-0.7,2.1-1.8,4.1-3.1,5.8c-1.3,1.7-2.9,3.2-4.8,4.4
		c-1.8,1.2-3.9,2.1-6.1,2.6l15.1,25.2v1.2h-9.6l-15.2-26h-5v-8.8H131.5z"/>
	<path class="st0" d="M177.8,220.2V287H169v-66.8H177.8z"/>
	<path class="st0" d="M205.6,278.2h6.5v8.8h-15.3v-66.8h15.3v8.8h-6.5V278.2z M236.8,240.2v13.3H228v-13.3c0-3.1-1.1-5.7-3.3-7.9
		c-2.2-2.2-4.8-3.3-7.9-3.3h-3.3v-8.8h3.3c2.7,0,5.3,0.5,7.8,1.6c2.4,1.1,4.5,2.5,6.4,4.3c1.8,1.8,3.2,3.9,4.3,6.4
		C236.2,234.9,236.8,237.5,236.8,240.2z M216.8,287h-3.3v-8.8h3.3c3.1,0,5.7-1.1,7.9-3.3c2.2-2.2,3.3-4.8,3.3-7.9v-12.1h8.8V267
		c0,2.7-0.5,5.3-1.6,7.8c-1.1,2.4-2.5,4.5-4.3,6.4c-1.8,1.8-3.9,3.2-6.4,4.3C222.1,286.5,219.5,287,216.8,287z"/>
	<path class="st0" d="M252.8,239c0-2.7,0.5-5.2,1.5-7.6s2.4-4.5,4.1-6.3c1.7-1.8,3.8-3.2,6.1-4.4c2.4-1.1,4.9-1.7,7.5-1.8v8.9
		c-2.9,0.1-5.4,1.3-7.4,3.5c-2,2.2-3.1,4.7-3.1,7.6v14.5h-8.8V239z M272.8,288.2c-2.7,0-5.3-0.5-7.8-1.6c-2.4-1.1-4.5-2.5-6.4-4.3
		c-1.8-1.8-3.2-3.9-4.3-6.3c-1.1-2.4-1.6-5-1.6-7.8v-13.3h8.8v13.3c0,3.1,1.1,5.7,3.3,7.9c2.2,2.2,4.8,3.3,7.9,3.3
		c1.1,0,2.2-0.2,3.3-0.5c1.1-0.3,2-0.8,2.9-1.4l6.3,6.3c-1.7,1.4-3.7,2.5-5.8,3.2C277.3,287.8,275.1,288.2,272.8,288.2z M284,242.6
		V239c0-2.9-1-5.5-3.1-7.6c-2.1-2.2-4.5-3.3-7.4-3.5V219c2.7,0.1,5.2,0.6,7.5,1.8c2.3,1.1,4.4,2.5,6.1,4.4c1.7,1.8,3.1,3.9,4.2,6.3
		c1,2.4,1.5,4.9,1.5,7.6v3.6H284z M292.8,254.9v33.3h-1.1l-11.6-11.5c1.2-1.1,2.2-2.3,2.9-3.8c0.7-1.5,1.1-3,1.1-4.7v-4.4h-10.5
		v-8.9H292.8z"/>
	<path class="st0" d="M310.3,287v-66.8h8.8v29.6h22.4v8.8h-22.4V287H310.3z M346.3,229h-25.8v-8.8h25.8V229z M346.3,287h-25.8v-8.8
		h25.8V287z"/>
	<path class="st0" d="M378.6,227.8c-2.8,0.1-5.2,1.1-7.2,2.8c-2,1.7-3.1,4-3.2,6.8h-8.9c0.1-2.6,0.6-5,1.7-7.2
		c1.1-2.2,2.5-4.1,4.2-5.8c1.7-1.6,3.8-2.9,6.1-3.9c2.3-0.9,4.8-1.4,7.3-1.5V227.8z M390.5,268.5c-0.1-2.4-1-4.3-2.6-5.6
		c-1.6-1.4-3.5-2.5-5.9-3.4l-7.8-3c-1.9-0.7-3.7-1.6-5.5-2.5c-1.8-1-3.3-2.2-4.7-3.6c-1.4-1.4-2.5-3.1-3.4-5
		c-0.9-1.9-1.4-4.2-1.5-6.7h8.9c0.2,2.3,1.1,4.1,2.8,5.6c1.7,1.5,3.7,2.7,6,3.5l8.3,3.1c1.5,0.6,3.1,1.3,4.8,2.2
		c1.6,0.9,3.1,2,4.5,3.3c1.3,1.4,2.4,3,3.3,5c0.9,1.9,1.4,4.3,1.5,7H390.5z M368.1,268.2c0,2.9,1,5.5,3.1,7.6
		c2.1,2.2,4.5,3.3,7.4,3.4v8.9c-2.7-0.1-5.2-0.7-7.5-1.8c-2.3-1.1-4.4-2.6-6.1-4.4c-1.7-1.8-3.1-3.9-4.2-6.3c-1-2.4-1.5-4.9-1.5-7.6
		v-2.6h8.8V268.2z M390.5,239c0-3-1-5.6-3.1-7.7c-2-2.1-4.5-3.3-7.4-3.5V219c2.7,0.1,5.2,0.6,7.5,1.8c2.4,1.1,4.4,2.5,6.1,4.4
		c1.7,1.8,3.1,3.9,4.1,6.3s1.5,4.9,1.5,7.6v2h-8.8V239z M380,279.4c2.9-0.1,5.3-1.1,7.2-2.8c2-1.7,3-4,3.2-6.7h8.8
		c-0.1,2.6-0.6,5-1.6,7.2c-1,2.2-2.4,4.1-4.1,5.7c-1.7,1.6-3.8,2.9-6.1,3.9c-2.3,1-4.8,1.5-7.4,1.6V279.4z"/>
</g>
</svg>
