<svg xmlns="http://www.w3.org/2000/svg" width="500" height="500" viewBox="0 0 500 500"><rect y="0.002" width="500" height="499.998" fill="#fff"/><path d="M475,0H0V500H500V0Zm24.75.6V24.4l-11.9-11.9ZM499.4.25l-11.9,11.9L475.6.25Zm-11.9,12.6,11.9,11.9H475.6ZM475.25,24.4V.6l11.9,11.9Zm-.5,451.208V499.4l-11.9-11.9ZM462.5,487.146l-11.9-11.9H474.4Zm-.354.354-11.9,11.9V475.6ZM450.6,474.75l11.9-11.9,11.9,11.9ZM450.25,450.6l11.9,11.9-11.9,11.9Zm24.5,23.792-11.9-11.9,11.9-11.9Zm-12.25-12.25-11.9-11.9H474.4ZM449.75,475.6V499.4l-11.9-11.9ZM437.5,487.146l-11.9-11.9H449.4Zm-.354.354-11.9,11.9V475.6ZM425.6,474.75l11.9-11.9,11.9,11.9Zm-.853.854V499.4l-11.9-11.9ZM412.5,487.146l-11.9-11.9H424.4Zm-.354.354-11.9,11.9V475.6ZM400.6,474.75l11.9-11.9,11.9,11.9Zm-.853.854V499.4l-11.9-11.9ZM387.5,487.146l-11.9-11.9H399.4Zm-.354.354-11.9,11.9V475.6ZM375.6,474.75l11.9-11.9,11.9,11.9Zm-.853.854V499.4l-11.9-11.9ZM362.5,487.146l-11.9-11.9H374.4Zm-.354.354-11.9,11.9V475.6ZM350.6,474.75l11.9-11.9,11.9,11.9Zm-.853.854V499.4l-11.9-11.9ZM337.5,487.146l-11.9-11.9H349.4Zm-.354.354-11.9,11.9V475.6ZM325.6,474.75l11.9-11.9,11.9,11.9Zm-.853.854V499.4l-11.9-11.9ZM312.5,487.146l-11.9-11.9H324.4Zm-.354.354-11.9,11.9V475.6ZM300.6,474.75l11.9-11.9,11.9,11.9Zm-.853.854V499.4l-11.9-11.9ZM287.5,487.146l-11.9-11.9H299.4Zm-.354.354-11.9,11.9V475.6ZM275.6,474.75l11.9-11.9,11.9,11.9Zm-.853.854V499.4l-11.9-11.9ZM262.5,487.146l-11.9-11.9H274.4Zm-.354.354-11.9,11.9V475.6ZM250.6,474.75l11.9-11.9,11.9,11.9Zm-.853.854V499.4l-11.9-11.9ZM237.5,487.146l-11.9-11.9H249.4Zm-.353.354-11.9,11.9V475.6ZM225.6,474.75l11.9-11.9,11.9,11.9Zm-.854.854V499.4l-11.9-11.9ZM212.5,487.146l-11.9-11.9H224.4Zm-.353.354-11.9,11.9V475.6ZM200.6,474.75l11.9-11.9,11.9,11.9Zm-.854.854V499.4l-11.9-11.9ZM187.5,487.146l-11.9-11.9H199.4Zm-.353.354-11.9,11.9V475.6ZM175.6,474.75l11.9-11.9,11.9,11.9Zm-.854.854V499.4l-11.9-11.9ZM162.5,487.146l-11.9-11.9H174.4Zm-.353.354-11.9,11.9V475.6ZM150.6,474.75l11.9-11.9,11.9,11.9Zm-.854.854V499.4l-11.9-11.9ZM137.5,487.146l-11.9-11.9H149.4Zm-.353.354-11.9,11.9V475.6ZM125.6,474.75l11.9-11.9,11.9,11.9Zm-.854.854V499.4l-11.9-11.9ZM112.5,487.146l-11.9-11.9H124.4Zm-.353.354-11.9,11.9V475.6ZM100.6,474.75l11.9-11.9,11.9,11.9Zm-.854.854V499.4l-11.9-11.9ZM87.5,487.146l-11.9-11.9H99.4Zm-.353.354-11.9,11.9V475.6ZM75.6,474.75l11.9-11.9,11.9,11.9Zm-.854.854V499.4l-11.9-11.9ZM62.5,487.146l-11.9-11.9H74.4Zm-.353.354-11.9,11.9V475.6ZM50.6,474.75l11.9-11.9,11.9,11.9Zm-.854.854V499.4l-11.9-11.9ZM37.5,487.146l-11.9-11.9H49.4Zm-.353.354-11.9,11.9V475.6ZM25.6,474.75l11.9-11.9,11.9,11.9ZM25.25,24.4V.6l11.9,11.9ZM37.5,12.853l11.9,11.9H25.6Zm.354-.353L49.75.6V24.4ZM49.4,25.25l-11.9,11.9L25.6,25.25ZM49.75,49.4l-11.9-11.9,11.9-11.9ZM25.25,25.6l11.9,11.9L25.25,49.4ZM37.5,37.853l11.9,11.9H25.6ZM50.25,24.4V.6l11.9,11.9ZM62.5,12.853l11.9,11.9H50.6Zm.354-.353L74.75.6V24.4ZM74.4,25.25l-11.9,11.9L50.6,25.25Zm.853-.854V.6l11.9,11.9ZM87.5,12.853l11.9,11.9H75.6Zm.354-.353L99.75.6V24.4ZM99.4,25.25l-11.9,11.9L75.6,25.25Zm.853-.854V.6l11.9,11.9ZM112.5,12.853l11.9,11.9H100.6Zm.354-.353L124.75.6V24.4ZM124.4,25.25l-11.9,11.9-11.9-11.9Zm.853-.854V.6l11.9,11.9ZM137.5,12.853l11.9,11.9H125.6Zm.354-.353L149.75.6V24.4ZM149.4,25.25l-11.9,11.9-11.9-11.9Zm.853-.854V.6l11.9,11.9ZM162.5,12.853l11.9,11.9H150.6Zm.354-.353L174.75.6V24.4ZM174.4,25.25l-11.9,11.9-11.9-11.9Zm.853-.854V.6l11.9,11.9ZM187.5,12.853l11.9,11.9H175.6Zm.354-.353L199.75.6V24.4ZM199.4,25.25l-11.9,11.9-11.9-11.9Zm.853-.854V.6l11.9,11.9ZM212.5,12.853l11.9,11.9H200.6Zm.354-.353L224.75.6V24.4ZM224.4,25.25l-11.9,11.9-11.9-11.9Zm.853-.854V.6l11.9,11.9ZM237.5,12.853l11.9,11.9H225.6Zm.354-.353L249.75.6V24.4ZM249.4,25.25l-11.9,11.9-11.9-11.9Zm.853-.854V.6l11.9,11.9ZM262.5,12.853l11.9,11.9H250.6Zm.353-.353L274.75.6V24.4ZM274.4,25.25l-11.9,11.9-11.9-11.9Zm.854-.854V.6l11.9,11.9ZM287.5,12.853l11.9,11.9H275.6Zm.353-.353L299.75.6V24.4ZM299.4,25.25l-11.9,11.9-11.9-11.9Zm.854-.854V.6l11.9,11.9ZM312.5,12.853l11.9,11.9H300.6Zm.353-.353L324.75.6V24.4ZM324.4,25.25l-11.9,11.9-11.9-11.9Zm.854-.854V.6l11.9,11.9ZM337.5,12.853l11.9,11.9H325.6Zm.353-.353L349.75.6V24.4ZM349.4,25.25l-11.9,11.9-11.9-11.9Zm.854-.854V.6l11.9,11.9ZM362.5,12.853l11.9,11.9H350.6Zm.353-.353L374.75.6V24.4ZM374.4,25.25l-11.9,11.9-11.9-11.9Zm.854-.854V.6l11.9,11.9ZM387.5,12.853l11.9,11.9H375.6Zm.353-.353L399.75.6V24.4ZM399.4,25.25l-11.9,11.9-11.9-11.9Zm.854-.854V.6l11.9,11.9ZM412.5,12.853l11.9,11.9H400.6Zm.353-.353L424.75.6V24.4ZM424.4,25.25l-11.9,11.9-11.9-11.9Zm.854-.854V.6l11.9,11.9ZM437.5,12.853l11.9,11.9H425.6Zm.353-.353L449.75.6V24.4ZM449.4,25.25l-11.9,11.9-11.9-11.9ZM437.146,462.5l-11.9,11.9V450.6Zm12.25-12.25-11.9,11.9-11.9-11.9Zm-23.793-.5,11.9-11.9,11.9,11.9ZM425.25,425.6l11.9,11.9-11.9,11.9Zm24.5,23.792-11.9-11.9,11.9-11.9Zm-12.25-12.25-11.9-11.9H449.4ZM412.146,462.5l-11.9,11.9V450.6Zm12.25-12.25-11.9,11.9-11.9-11.9Zm-23.793-.5,11.9-11.9,11.9,11.9ZM387.146,462.5l-11.9,11.9V450.6Zm12.25-12.25-11.9,11.9-11.9-11.9Zm-23.793-.5,11.9-11.9,11.9,11.9ZM362.146,462.5l-11.9,11.9V450.6Zm12.25-12.25-11.9,11.9-11.9-11.9Zm-23.793-.5,11.9-11.9,11.9,11.9ZM337.146,462.5l-11.9,11.9V450.6Zm12.25-12.25-11.9,11.9-11.9-11.9Zm-23.793-.5,11.9-11.9,11.9,11.9ZM312.146,462.5l-11.9,11.9V450.6Zm12.25-12.25-11.9,11.9-11.9-11.9Zm-23.793-.5,11.9-11.9,11.9,11.9ZM287.146,462.5l-11.9,11.9V450.6Zm12.25-12.25-11.9,11.9-11.9-11.9Zm-23.793-.5,11.9-11.9,11.9,11.9ZM262.146,462.5l-11.9,11.9V450.6Zm12.25-12.25-11.9,11.9-11.9-11.9Zm-23.793-.5,11.9-11.9,11.9,11.9ZM237.147,462.5l-11.9,11.9V450.6Zm12.25-12.25-11.9,11.9-11.9-11.9Zm-23.793-.5,11.9-11.9,11.9,11.9ZM212.147,462.5l-11.9,11.9V450.6Zm12.25-12.25-11.9,11.9-11.9-11.9Zm-23.793-.5,11.9-11.9,11.9,11.9ZM187.147,462.5l-11.9,11.9V450.6Zm12.25-12.25-11.9,11.9-11.9-11.9Zm-23.793-.5,11.9-11.9,11.9,11.9ZM162.147,462.5l-11.9,11.9V450.6Zm12.25-12.25-11.9,11.9-11.9-11.9Zm-23.793-.5,11.9-11.9,11.9,11.9ZM137.147,462.5l-11.9,11.9V450.6Zm12.25-12.25-11.9,11.9-11.9-11.9Zm-23.793-.5,11.9-11.9,11.9,11.9ZM112.147,462.5l-11.9,11.9V450.6Zm12.25-12.25-11.9,11.9-11.9-11.9Zm-23.793-.5,11.9-11.9,11.9,11.9ZM87.147,462.5l-11.9,11.9V450.6ZM99.4,450.25l-11.9,11.9-11.9-11.9Zm-23.793-.5,11.9-11.9,11.9,11.9ZM62.147,462.5l-11.9,11.9V450.6ZM74.4,450.25l-11.9,11.9-11.9-11.9Zm-23.793-.5,11.9-11.9,11.9,11.9ZM62.854,37.5l11.9-11.9V49.4ZM50.6,49.75l11.9-11.9,11.9,11.9Zm23.793.5-11.9,11.9L50.6,50.25ZM74.75,74.4,62.854,62.5l11.9-11.9ZM50.25,50.6l11.9,11.9L50.25,74.4ZM62.5,62.853l11.9,11.9H50.6ZM87.854,37.5l11.9-11.9V49.4ZM75.6,49.75l11.9-11.9,11.9,11.9Zm23.793.5-11.9,11.9L75.6,50.25ZM112.854,37.5l11.9-11.9V49.4ZM100.6,49.75l11.9-11.9,11.9,11.9Zm23.793.5-11.9,11.9-11.9-11.9ZM137.854,37.5l11.9-11.9V49.4ZM125.6,49.75l11.9-11.9,11.9,11.9Zm23.793.5-11.9,11.9-11.9-11.9ZM162.854,37.5l11.9-11.9V49.4ZM150.6,49.75l11.9-11.9,11.9,11.9Zm23.793.5-11.9,11.9-11.9-11.9ZM187.854,37.5l11.9-11.9V49.4ZM175.6,49.75l11.9-11.9,11.9,11.9Zm23.793.5-11.9,11.9-11.9-11.9ZM212.854,37.5l11.9-11.9V49.4ZM200.6,49.75l11.9-11.9,11.9,11.9Zm23.793.5-11.9,11.9-11.9-11.9ZM237.854,37.5l11.9-11.9V49.4ZM225.6,49.75l11.9-11.9,11.9,11.9Zm23.793.5-11.9,11.9-11.9-11.9ZM262.853,37.5l11.9-11.9V49.4ZM250.6,49.75l11.9-11.9,11.9,11.9Zm23.793.5-11.9,11.9-11.9-11.9ZM287.853,37.5l11.9-11.9V49.4ZM275.6,49.75l11.9-11.9,11.9,11.9Zm23.793.5-11.9,11.9-11.9-11.9ZM312.853,37.5l11.9-11.9V49.4ZM300.6,49.75l11.9-11.9,11.9,11.9Zm23.793.5-11.9,11.9-11.9-11.9ZM337.853,37.5l11.9-11.9V49.4ZM325.6,49.75l11.9-11.9,11.9,11.9Zm23.793.5-11.9,11.9-11.9-11.9ZM362.853,37.5l11.9-11.9V49.4ZM350.6,49.75l11.9-11.9,11.9,11.9Zm23.793.5-11.9,11.9-11.9-11.9ZM387.853,37.5l11.9-11.9V49.4ZM375.6,49.75l11.9-11.9,11.9,11.9Zm23.793.5-11.9,11.9-11.9-11.9ZM412.853,37.5l11.9-11.9V49.4ZM400.6,49.75l11.9-11.9,11.9,11.9Zm23.793.5-11.9,11.9-11.9-11.9ZM412.146,437.5l-11.9,11.9V425.6Zm12.25-12.25-11.9,11.9-11.9-11.9Zm-23.793-.5,11.9-11.9,11.9,11.9ZM400.25,400.6l11.9,11.9-11.9,11.9Zm24.5,23.792-11.9-11.9,11.9-11.9Zm-12.25-12.25-11.9-11.9H424.4ZM387.146,437.5l-11.9,11.9V425.6Zm12.25-12.25-11.9,11.9-11.9-11.9Zm-23.793-.5,11.9-11.9,11.9,11.9ZM362.146,437.5l-11.9,11.9V425.6Zm12.25-12.25-11.9,11.9-11.9-11.9Zm-23.793-.5,11.9-11.9,11.9,11.9ZM337.146,437.5l-11.9,11.9V425.6Zm12.25-12.25-11.9,11.9-11.9-11.9Zm-23.793-.5,11.9-11.9,11.9,11.9ZM312.146,437.5l-11.9,11.9V425.6Zm12.25-12.25-11.9,11.9-11.9-11.9Zm-23.793-.5,11.9-11.9,11.9,11.9ZM287.146,437.5l-11.9,11.9V425.6Zm12.25-12.25-11.9,11.9-11.9-11.9Zm-23.793-.5,11.9-11.9,11.9,11.9ZM262.146,437.5l-11.9,11.9V425.6Zm12.25-12.25-11.9,11.9-11.9-11.9Zm-23.793-.5,11.9-11.9,11.9,11.9ZM237.147,437.5l-11.9,11.9V425.6Zm12.25-12.25-11.9,11.9-11.9-11.9Zm-23.793-.5,11.9-11.9,11.9,11.9ZM212.147,437.5l-11.9,11.9V425.6Zm12.25-12.25-11.9,11.9-11.9-11.9Zm-23.793-.5,11.9-11.9,11.9,11.9ZM187.147,437.5l-11.9,11.9V425.6Zm12.25-12.25-11.9,11.9-11.9-11.9Zm-23.793-.5,11.9-11.9,11.9,11.9ZM162.147,437.5l-11.9,11.9V425.6Zm12.25-12.25-11.9,11.9-11.9-11.9Zm-23.793-.5,11.9-11.9,11.9,11.9ZM137.147,437.5l-11.9,11.9V425.6Zm12.25-12.25-11.9,11.9-11.9-11.9Zm-23.793-.5,11.9-11.9,11.9,11.9ZM112.147,437.5l-11.9,11.9V425.6Zm12.25-12.25-11.9,11.9-11.9-11.9Zm-23.793-.5,11.9-11.9,11.9,11.9ZM87.147,437.5l-11.9,11.9V425.6ZM99.4,425.25l-11.9,11.9-11.9-11.9Zm-23.793-.5,11.9-11.9,11.9,11.9ZM87.854,62.5l11.9-11.9V74.4ZM75.6,74.749l11.9-11.9,11.9,11.9Zm23.793.5-11.9,11.9-11.9-11.9ZM99.75,99.4l-11.9-11.9,11.9-11.9ZM75.25,75.6l11.9,11.9L75.25,99.4ZM87.5,87.853l11.9,11.9H75.6ZM112.854,62.5l11.9-11.9V74.4ZM100.6,74.749l11.9-11.9,11.9,11.9Zm23.793.5-11.9,11.9-11.9-11.9ZM137.854,62.5l11.9-11.9V74.4ZM125.6,74.749l11.9-11.9,11.9,11.9Zm23.793.5-11.9,11.9-11.9-11.9ZM162.854,62.5l11.9-11.9V74.4ZM150.6,74.749l11.9-11.9,11.9,11.9Zm23.793.5-11.9,11.9-11.9-11.9ZM187.854,62.5l11.9-11.9V74.4ZM175.6,74.749l11.9-11.9,11.9,11.9Zm23.793.5-11.9,11.9-11.9-11.9ZM212.854,62.5l11.9-11.9V74.4ZM200.6,74.749l11.9-11.9,11.9,11.9Zm23.793.5-11.9,11.9-11.9-11.9ZM237.854,62.5l11.9-11.9V74.4ZM225.6,74.749l11.9-11.9,11.9,11.9Zm23.793.5-11.9,11.9-11.9-11.9ZM262.853,62.5l11.9-11.9V74.4ZM250.6,74.749l11.9-11.9,11.9,11.9Zm23.793.5-11.9,11.9-11.9-11.9ZM287.853,62.5l11.9-11.9V74.4ZM275.6,74.749l11.9-11.9,11.9,11.9Zm23.793.5-11.9,11.9-11.9-11.9ZM312.853,62.5l11.9-11.9V74.4ZM300.6,74.749l11.9-11.9,11.9,11.9Zm23.793.5-11.9,11.9-11.9-11.9ZM337.853,62.5l11.9-11.9V74.4ZM325.6,74.749l11.9-11.9,11.9,11.9Zm23.793.5-11.9,11.9-11.9-11.9ZM362.853,62.5l11.9-11.9V74.4ZM350.6,74.749l11.9-11.9,11.9,11.9Zm23.793.5-11.9,11.9-11.9-11.9ZM387.853,62.5l11.9-11.9V74.4ZM375.6,74.749l11.9-11.9,11.9,11.9Zm23.793.5-11.9,11.9-11.9-11.9ZM387.146,412.5l-11.9,11.9V400.6Zm12.25-12.25-11.9,11.9-11.9-11.9Zm-23.793-.5,11.9-11.9,11.9,11.9ZM375.25,375.6l11.9,11.9-11.9,11.9Zm24.5,23.792-11.9-11.9,11.9-11.9Zm-12.25-12.25-11.9-11.9H399.4ZM362.146,412.5l-11.9,11.9V400.6Zm12.25-12.25-11.9,11.9-11.9-11.9Zm-23.793-.5,11.9-11.9,11.9,11.9ZM337.146,412.5l-11.9,11.9V400.6Zm12.25-12.25-11.9,11.9-11.9-11.9Zm-23.793-.5,11.9-11.9,11.9,11.9ZM312.146,412.5l-11.9,11.9V400.6Zm12.25-12.25-11.9,11.9-11.9-11.9Zm-23.793-.5,11.9-11.9,11.9,11.9ZM287.146,412.5l-11.9,11.9V400.6Zm12.25-12.25-11.9,11.9-11.9-11.9Zm-23.793-.5,11.9-11.9,11.9,11.9ZM262.146,412.5l-11.9,11.9V400.6Zm12.25-12.25-11.9,11.9-11.9-11.9Zm-23.793-.5,11.9-11.9,11.9,11.9ZM237.147,412.5l-11.9,11.9V400.6Zm12.25-12.25-11.9,11.9-11.9-11.9Zm-23.793-.5,11.9-11.9,11.9,11.9ZM212.147,412.5l-11.9,11.9V400.6Zm12.25-12.25-11.9,11.9-11.9-11.9Zm-23.793-.5,11.9-11.9,11.9,11.9ZM187.147,412.5l-11.9,11.9V400.6Zm12.25-12.25-11.9,11.9-11.9-11.9Zm-23.793-.5,11.9-11.9,11.9,11.9ZM162.147,412.5l-11.9,11.9V400.6Zm12.25-12.25-11.9,11.9-11.9-11.9Zm-23.793-.5,11.9-11.9,11.9,11.9ZM137.147,412.5l-11.9,11.9V400.6Zm12.25-12.25-11.9,11.9-11.9-11.9Zm-23.793-.5,11.9-11.9,11.9,11.9ZM112.147,412.5l-11.9,11.9V400.6Zm12.25-12.25-11.9,11.9-11.9-11.9Zm-23.793-.5,11.9-11.9,11.9,11.9ZM112.854,87.5l11.9-11.9V99.4ZM100.6,99.749l11.9-11.9,11.9,11.9Zm23.793.5-11.9,11.9-11.9-11.9Zm.353,24.146-11.9-11.9,11.9-11.9ZM100.25,100.6l11.9,11.9-11.9,11.9Zm12.25,12.25,11.9,11.9H100.6ZM137.854,87.5l11.9-11.9V99.4ZM125.6,99.749l11.9-11.9,11.9,11.9Zm23.793.5-11.9,11.9-11.9-11.9ZM162.854,87.5l11.9-11.9V99.4ZM150.6,99.749l11.9-11.9,11.9,11.9Zm23.793.5-11.9,11.9-11.9-11.9ZM187.854,87.5l11.9-11.9V99.4ZM175.6,99.749l11.9-11.9,11.9,11.9Zm23.793.5-11.9,11.9-11.9-11.9ZM212.854,87.5l11.9-11.9V99.4ZM200.6,99.749l11.9-11.9,11.9,11.9Zm23.793.5-11.9,11.9-11.9-11.9ZM237.854,87.5l11.9-11.9V99.4ZM225.6,99.749l11.9-11.9,11.9,11.9Zm23.793.5-11.9,11.9-11.9-11.9ZM262.853,87.5l11.9-11.9V99.4ZM250.6,99.749l11.9-11.9,11.9,11.9Zm23.793.5-11.9,11.9-11.9-11.9ZM287.853,87.5l11.9-11.9V99.4ZM275.6,99.749l11.9-11.9,11.9,11.9Zm23.793.5-11.9,11.9-11.9-11.9ZM312.853,87.5l11.9-11.9V99.4ZM300.6,99.749l11.9-11.9,11.9,11.9Zm23.793.5-11.9,11.9-11.9-11.9ZM337.853,87.5l11.9-11.9V99.4ZM325.6,99.749l11.9-11.9,11.9,11.9Zm23.793.5-11.9,11.9-11.9-11.9ZM362.853,87.5l11.9-11.9V99.4ZM350.6,99.749l11.9-11.9,11.9,11.9Zm23.793.5-11.9,11.9-11.9-11.9ZM362.146,387.5l-11.9,11.9V375.6Zm12.25-12.25-11.9,11.9-11.9-11.9Zm-23.793-.5,11.9-11.9,11.9,11.9ZM350.25,350.6l11.9,11.9-11.9,11.9Zm24.5,23.792-11.9-11.9,11.9-11.9ZM362.5,362.147l-11.9-11.9H374.4ZM337.146,387.5l-11.9,11.9V375.6Zm12.25-12.25-11.9,11.9-11.9-11.9Zm-23.793-.5,11.9-11.9,11.9,11.9ZM312.146,387.5l-11.9,11.9V375.6Zm12.25-12.25-11.9,11.9-11.9-11.9Zm-23.793-.5,11.9-11.9,11.9,11.9ZM287.146,387.5l-11.9,11.9V375.6Zm12.25-12.25-11.9,11.9-11.9-11.9Zm-23.793-.5,11.9-11.9,11.9,11.9ZM262.146,387.5l-11.9,11.9V375.6Zm12.25-12.25-11.9,11.9-11.9-11.9Zm-23.793-.5,11.9-11.9,11.9,11.9ZM237.147,387.5l-11.9,11.9V375.6Zm12.25-12.25-11.9,11.9-11.9-11.9Zm-23.793-.5,11.9-11.9,11.9,11.9ZM212.147,387.5l-11.9,11.9V375.6Zm12.25-12.25-11.9,11.9-11.9-11.9Zm-23.793-.5,11.9-11.9,11.9,11.9ZM187.147,387.5l-11.9,11.9V375.6Zm12.25-12.25-11.9,11.9-11.9-11.9Zm-23.793-.5,11.9-11.9,11.9,11.9ZM162.147,387.5l-11.9,11.9V375.6Zm12.25-12.25-11.9,11.9-11.9-11.9Zm-23.793-.5,11.9-11.9,11.9,11.9ZM137.147,387.5l-11.9,11.9V375.6Zm12.25-12.25-11.9,11.9-11.9-11.9Zm-23.793-.5,11.9-11.9,11.9,11.9ZM137.854,112.5l11.9-11.9V124.4Zm-12.25,12.25,11.9-11.9,11.9,11.9Zm23.793.5-11.9,11.9-11.9-11.9Zm.353,24.146-11.9-11.9,11.9-11.9ZM125.25,125.6l11.9,11.9-11.9,11.9Zm12.25,12.25,11.9,11.9H125.6ZM162.854,112.5l11.9-11.9V124.4Zm-12.25,12.25,11.9-11.9,11.9,11.9Zm23.793.5-11.9,11.9-11.9-11.9Zm13.457-12.75,11.9-11.9V124.4Zm-12.25,12.25,11.9-11.9,11.9,11.9Zm23.793.5-11.9,11.9-11.9-11.9Zm13.457-12.75,11.9-11.9V124.4Zm-12.25,12.25,11.9-11.9,11.9,11.9Zm23.793.5-11.9,11.9-11.9-11.9Zm13.457-12.75,11.9-11.9V124.4Zm-12.25,12.25,11.9-11.9,11.9,11.9Zm23.793.5-11.9,11.9-11.9-11.9Zm13.456-12.75,11.9-11.9V124.4Zm-12.25,12.25,11.9-11.9,11.9,11.9Zm23.793.5-11.9,11.9-11.9-11.9Zm13.457-12.75,11.9-11.9V124.4Zm-12.25,12.25,11.9-11.9,11.9,11.9Zm23.793.5-11.9,11.9-11.9-11.9Zm13.457-12.75,11.9-11.9V124.4Zm-12.25,12.25,11.9-11.9,11.9,11.9Zm23.793.5-11.9,11.9-11.9-11.9Zm13.457-12.75,11.9-11.9V124.4Zm-12.25,12.25,11.9-11.9,11.9,11.9Zm23.793.5-11.9,11.9-11.9-11.9ZM337.146,362.5l-11.9,11.9V350.6Zm12.25-12.25-11.9,11.9-11.9-11.9Zm-23.793-.5,11.9-11.9,11.9,11.9ZM325.25,325.6l11.9,11.9-11.9,11.9Zm24.5,23.793-11.9-11.9,11.9-11.9Zm-12.25-12.25-11.9-11.9H349.4ZM312.146,362.5l-11.9,11.9V350.6Zm12.25-12.25-11.9,11.9-11.9-11.9Zm-23.793-.5,11.9-11.9,11.9,11.9ZM287.146,362.5l-11.9,11.9V350.6Zm12.25-12.25-11.9,11.9-11.9-11.9Zm-23.793-.5,11.9-11.9,11.9,11.9ZM262.146,362.5l-11.9,11.9V350.6Zm12.25-12.25-11.9,11.9-11.9-11.9Zm-23.793-.5,11.9-11.9,11.9,11.9ZM237.147,362.5l-11.9,11.9V350.6Zm12.25-12.25-11.9,11.9-11.9-11.9Zm-23.793-.5,11.9-11.9,11.9,11.9ZM212.147,362.5l-11.9,11.9V350.6Zm12.25-12.25-11.9,11.9-11.9-11.9Zm-23.793-.5,11.9-11.9,11.9,11.9ZM187.147,362.5l-11.9,11.9V350.6Zm12.25-12.25-11.9,11.9-11.9-11.9Zm-23.793-.5,11.9-11.9,11.9,11.9ZM162.147,362.5l-11.9,11.9V350.6Zm12.25-12.25-11.9,11.9-11.9-11.9Zm-23.793-.5,11.9-11.9,11.9,11.9ZM162.854,137.5l11.9-11.9V149.4Zm-12.25,12.25,11.9-11.9,11.9,11.9Zm23.793.5-11.9,11.9-11.9-11.9Zm.353,24.147-11.9-11.9,11.9-11.9ZM150.25,150.6l11.9,11.9-11.9,11.9Zm12.25,12.25,11.9,11.9H150.6ZM187.854,137.5l11.9-11.9V149.4Zm-12.25,12.25,11.9-11.9,11.9,11.9Zm23.793.5-11.9,11.9-11.9-11.9Zm13.457-12.75,11.9-11.9V149.4Zm-12.25,12.25,11.9-11.9,11.9,11.9Zm23.793.5-11.9,11.9-11.9-11.9Zm13.457-12.75,11.9-11.9V149.4Zm-12.25,12.25,11.9-11.9,11.9,11.9Zm23.793.5-11.9,11.9-11.9-11.9Zm13.456-12.75,11.9-11.9V149.4Zm-12.25,12.25,11.9-11.9,11.9,11.9Zm23.793.5-11.9,11.9-11.9-11.9Zm13.457-12.75,11.9-11.9V149.4Zm-12.25,12.25,11.9-11.9,11.9,11.9Zm23.793.5-11.9,11.9-11.9-11.9Zm13.457-12.75,11.9-11.9V149.4Zm-12.25,12.25,11.9-11.9,11.9,11.9Zm23.793.5-11.9,11.9-11.9-11.9ZM312.146,337.5l-11.9,11.9V325.6Zm12.25-12.25-11.9,11.9-11.9-11.9Zm-23.793-.5,11.9-11.9,11.9,11.9ZM300.25,300.6l11.9,11.9-11.9,11.9Zm24.5,23.793-11.9-11.9,11.9-11.9Zm-12.25-12.25-11.9-11.9H324.4ZM287.146,337.5l-11.9,11.9V325.6Zm12.25-12.25-11.9,11.9-11.9-11.9Zm-23.793-.5,11.9-11.9,11.9,11.9ZM262.146,337.5l-11.9,11.9V325.6Zm12.25-12.25-11.9,11.9-11.9-11.9Zm-23.793-.5,11.9-11.9,11.9,11.9ZM237.147,337.5l-11.9,11.9V325.6Zm12.25-12.25-11.9,11.9-11.9-11.9Zm-23.793-.5,11.9-11.9,11.9,11.9ZM212.147,337.5l-11.9,11.9V325.6Zm12.25-12.25-11.9,11.9-11.9-11.9Zm-23.793-.5,11.9-11.9,11.9,11.9ZM187.147,337.5l-11.9,11.9V325.6Zm12.25-12.25-11.9,11.9-11.9-11.9Zm-23.793-.5,11.9-11.9,11.9,11.9ZM187.854,162.5l11.9-11.9V174.4Zm-12.25,12.25,11.9-11.9,11.9,11.9Zm23.793.5-11.9,11.9-11.9-11.9Zm.353,24.146-11.9-11.9,11.9-11.9ZM175.25,175.6l11.9,11.9-11.9,11.9Zm12.25,12.25,11.9,11.9H175.6ZM212.854,162.5l11.9-11.9V174.4Zm-12.25,12.25,11.9-11.9,11.9,11.9Zm23.793.5-11.9,11.9-11.9-11.9Zm13.457-12.75,11.9-11.9V174.4Zm-12.25,12.25,11.9-11.9,11.9,11.9Zm23.793.5-11.9,11.9-11.9-11.9Zm13.456-12.75,11.9-11.9V174.4Zm-12.25,12.25,11.9-11.9,11.9,11.9Zm23.793.5-11.9,11.9-11.9-11.9Zm13.457-12.75,11.9-11.9V174.4Zm-12.25,12.25,11.9-11.9,11.9,11.9Zm23.793.5-11.9,11.9-11.9-11.9ZM287.146,312.5l-11.9,11.9V300.6Zm12.25-12.25-11.9,11.9-11.9-11.9Zm-23.793-.5,11.9-11.9,11.9,11.9ZM275.25,275.6l11.9,11.9-11.9,11.9Zm24.5,23.793-11.9-11.9,11.9-11.9Zm-12.25-12.25-11.9-11.9H299.4ZM262.146,312.5l-11.9,11.9V300.6Zm12.25-12.25-11.9,11.9-11.9-11.9Zm-23.793-.5,11.9-11.9,11.9,11.9ZM237.147,312.5l-11.9,11.9V300.6Zm12.25-12.25-11.9,11.9-11.9-11.9Zm-23.793-.5,11.9-11.9,11.9,11.9ZM212.147,312.5l-11.9,11.9V300.6Zm12.25-12.25-11.9,11.9-11.9-11.9Zm-23.793-.5,11.9-11.9,11.9,11.9ZM212.854,187.5l11.9-11.9V199.4Zm-12.25,12.25,11.9-11.9,11.9,11.9Zm23.793.5-11.9,11.9-11.9-11.9Zm.353,24.148-11.9-11.9,11.9-11.9ZM200.25,200.6l11.9,11.9-11.9,11.9Zm12.25,12.25,11.9,11.9H200.6ZM237.854,187.5l11.9-11.9V199.4Zm-12.25,12.25,11.9-11.9,11.9,11.9Zm23.793.5-11.9,11.9-11.9-11.9Zm13.456-12.75,11.9-11.9V199.4Zm-12.25,12.25,11.9-11.9,11.9,11.9Zm23.793.5-11.9,11.9-11.9-11.9ZM262.146,287.5l-11.9,11.9V275.6Zm12.25-12.25-11.9,11.9-11.9-11.9Zm-23.793-.5,11.9-11.9,11.9,11.9ZM250.25,250.6l11.9,11.9-11.9,11.9Zm24.5,23.793-11.9-11.9,11.9-11.9Zm-12.25-12.25-11.9-11.9H274.4ZM237.147,287.5l-11.9,11.9V275.6Zm12.25-12.25-11.9,11.9-11.9-11.9Zm-23.793-.5,11.9-11.9,11.9,11.9Zm12.25-62.252,11.9-11.9V224.4ZM225.6,224.751l11.9-11.9,11.9,11.9Zm23.793.5-11.9,11.9-11.9-11.9Zm.353,24.146-11.9-11.9,11.9-11.9ZM225.25,225.6l11.9,11.9-11.9,11.9Zm12.25,12.25,11.9,11.9H225.6Zm11.9,12.4-11.9,11.9-11.9-11.9Zm-24.147.353,11.9,11.9-11.9,11.9Zm24.5,23.793-11.9-11.9,11.9-11.9Zm.5-48.793,11.9,11.9-11.9,11.9Zm.353,24.147,11.9-11.9,11.9,11.9Zm24.147-.354-11.9-11.9,11.9-11.9Zm-12.25-12.25-11.9-11.9H274.4Zm-11.9-12.4,11.9-11.9,11.9,11.9Zm24.147-.354-11.9-11.9,11.9-11.9ZM250.25,200.6l11.9,11.9-11.9,11.9Zm-25,0,11.9,11.9-11.9,11.9Zm-.5,48.794-11.9-11.9,11.9-11.9Zm-.353-24.146-11.9,11.9-11.9-11.9Zm-24.147.353,11.9,11.9-11.9,11.9Zm12.25,12.25,11.9,11.9H200.6ZM224.75,274.4l-11.9-11.9,11.9-11.9Zm-.353-24.146-11.9,11.9-11.9-11.9Zm-24.147.353,11.9,11.9-11.9,11.9Zm12.25,12.25,11.9,11.9H200.6Zm11.9,12.4-11.9,11.9-11.9-11.9Zm-24.147.353,11.9,11.9-11.9,11.9Zm24.5,23.793-11.9-11.9,11.9-11.9Zm25,0-11.9-11.9,11.9-11.9Zm25,0-11.9-11.9,11.9-11.9Zm.5-48.793,11.9,11.9-11.9,11.9Zm.353,24.147,11.9-11.9,11.9,11.9Zm24.147-.354-11.9-11.9,11.9-11.9Zm-12.25-12.25-11.9-11.9H299.4ZM275.25,225.6l11.9,11.9-11.9,11.9Zm.353,24.147,11.9-11.9,11.9,11.9Zm24.147-.354-11.9-11.9,11.9-11.9Zm-12.25-12.25-11.9-11.9H299.4ZM275.25,200.6l11.9,11.9-11.9,11.9Zm.353,24.148,11.9-11.9,11.9,11.9Zm24.147-.354-11.9-11.9,11.9-11.9ZM287.5,212.145l-11.9-11.9H299.4Zm-11.9-12.4,11.9-11.9,11.9,11.9Zm24.147-.354-11.9-11.9,11.9-11.9ZM275.25,175.6l11.9,11.9-11.9,11.9Zm-25,0,11.9,11.9-11.9,11.9Zm-25,0,11.9,11.9-11.9,11.9Zm-25,0,11.9,11.9-11.9,11.9Zm-.5,48.794-11.9-11.9,11.9-11.9Zm-.353-24.148-11.9,11.9-11.9-11.9Zm-24.147.354,11.9,11.9-11.9,11.9Zm12.25,12.25,11.9,11.9H175.6ZM199.75,249.4l-11.9-11.9,11.9-11.9Zm-.353-24.146-11.9,11.9-11.9-11.9Zm-24.147.353,11.9,11.9-11.9,11.9Zm12.25,12.25,11.9,11.9H175.6ZM199.75,274.4l-11.9-11.9,11.9-11.9Zm-.353-24.146-11.9,11.9-11.9-11.9Zm-24.147.353,11.9,11.9-11.9,11.9Zm12.25,12.25,11.9,11.9H175.6ZM199.75,299.4l-11.9-11.9,11.9-11.9Zm-.353-24.146-11.9,11.9-11.9-11.9Zm-24.147.353,11.9,11.9-11.9,11.9Zm12.25,12.25,11.9,11.9H175.6Zm11.9,12.4-11.9,11.9-11.9-11.9Zm-24.147.353,11.9,11.9-11.9,11.9Zm24.5,23.793-11.9-11.9,11.9-11.9Zm25,0-11.9-11.9,11.9-11.9Zm25,0-11.9-11.9,11.9-11.9Zm25,0-11.9-11.9,11.9-11.9Zm25,0-11.9-11.9,11.9-11.9Zm.5-48.793,11.9,11.9-11.9,11.9Zm.353,24.147,11.9-11.9,11.9,11.9Zm24.147-.354-11.9-11.9,11.9-11.9Zm-12.25-12.25-11.9-11.9H324.4ZM300.25,250.6l11.9,11.9-11.9,11.9Zm.353,24.147,11.9-11.9,11.9,11.9Zm24.147-.354-11.9-11.9,11.9-11.9Zm-12.25-12.25-11.9-11.9H324.4ZM300.25,225.6l11.9,11.9-11.9,11.9Zm.353,24.147,11.9-11.9,11.9,11.9Zm24.147-.354-11.9-11.9,11.9-11.9Zm-12.25-12.25-11.9-11.9H324.4ZM300.25,200.6l11.9,11.9-11.9,11.9Zm.353,24.148,11.9-11.9,11.9,11.9Zm24.147-.354-11.9-11.9,11.9-11.9ZM312.5,212.145l-11.9-11.9H324.4ZM300.25,175.6l11.9,11.9-11.9,11.9Zm.353,24.146,11.9-11.9,11.9,11.9Zm24.147-.354-11.9-11.9,11.9-11.9Zm-12.25-12.25-11.9-11.9H324.4Zm-11.9-12.4,11.9-11.9,11.9,11.9Zm24.147-.353-11.9-11.9,11.9-11.9ZM300.25,150.6l11.9,11.9-11.9,11.9Zm-25,0,11.9,11.9-11.9,11.9Zm-25,0,11.9,11.9-11.9,11.9Zm-25,0,11.9,11.9-11.9,11.9Zm-25,0,11.9,11.9-11.9,11.9Zm-25,0,11.9,11.9-11.9,11.9Zm-.5,48.792-11.9-11.9,11.9-11.9Zm-.353-24.146-11.9,11.9-11.9-11.9Zm-24.147.354,11.9,11.9-11.9,11.9Zm12.25,12.25,11.9,11.9H150.6ZM174.75,224.4l-11.9-11.9,11.9-11.9Zm-.353-24.148-11.9,11.9-11.9-11.9Zm-24.147.354,11.9,11.9-11.9,11.9Zm12.25,12.25,11.9,11.9H150.6ZM174.75,249.4l-11.9-11.9,11.9-11.9Zm-.353-24.146-11.9,11.9-11.9-11.9Zm-24.147.353,11.9,11.9-11.9,11.9Zm12.25,12.25,11.9,11.9H150.6ZM174.75,274.4l-11.9-11.9,11.9-11.9Zm-.353-24.146-11.9,11.9-11.9-11.9Zm-24.147.353,11.9,11.9-11.9,11.9Zm12.25,12.25,11.9,11.9H150.6ZM174.75,299.4l-11.9-11.9,11.9-11.9Zm-.353-24.146-11.9,11.9-11.9-11.9Zm-24.147.353,11.9,11.9-11.9,11.9Zm12.25,12.25,11.9,11.9H150.6ZM174.75,324.4l-11.9-11.9,11.9-11.9Zm-.353-24.146-11.9,11.9-11.9-11.9Zm-24.147.353,11.9,11.9-11.9,11.9Zm12.25,12.25,11.9,11.9H150.6Zm11.9,12.4-11.9,11.9-11.9-11.9Zm-24.147.353,11.9,11.9-11.9,11.9Zm24.5,23.793-11.9-11.9,11.9-11.9Zm25,0-11.9-11.9,11.9-11.9Zm25,0-11.9-11.9,11.9-11.9Zm25,0-11.9-11.9,11.9-11.9Zm25,0-11.9-11.9,11.9-11.9Zm25,0-11.9-11.9,11.9-11.9Zm25,0-11.9-11.9,11.9-11.9Zm.5-48.793,11.9,11.9-11.9,11.9Zm.353,24.147,11.9-11.9,11.9,11.9Zm24.147-.354-11.9-11.9,11.9-11.9Zm-12.25-12.25-11.9-11.9H349.4ZM325.25,275.6l11.9,11.9-11.9,11.9Zm.353,24.147,11.9-11.9,11.9,11.9Zm24.147-.354-11.9-11.9,11.9-11.9Zm-12.25-12.25-11.9-11.9H349.4ZM325.25,250.6l11.9,11.9-11.9,11.9Zm.353,24.147,11.9-11.9,11.9,11.9Zm24.147-.354-11.9-11.9,11.9-11.9Zm-12.25-12.25-11.9-11.9H349.4ZM325.25,225.6l11.9,11.9-11.9,11.9Zm.353,24.147,11.9-11.9,11.9,11.9Zm24.147-.354-11.9-11.9,11.9-11.9Zm-12.25-12.25-11.9-11.9H349.4ZM325.25,200.6l11.9,11.9-11.9,11.9Zm.353,24.148,11.9-11.9,11.9,11.9Zm24.147-.354-11.9-11.9,11.9-11.9ZM337.5,212.145l-11.9-11.9H349.4ZM325.25,175.6l11.9,11.9-11.9,11.9Zm.353,24.146,11.9-11.9,11.9,11.9Zm24.147-.354-11.9-11.9,11.9-11.9Zm-12.25-12.25-11.9-11.9H349.4ZM325.25,150.6l11.9,11.9-11.9,11.9Zm.353,24.146,11.9-11.9,11.9,11.9Zm24.147-.353-11.9-11.9,11.9-11.9Zm-12.25-12.25-11.9-11.9H349.4Zm-11.9-12.4,11.9-11.9,11.9,11.9Zm24.147-.354-11.9-11.9,11.9-11.9ZM325.25,125.6l11.9,11.9-11.9,11.9Zm-25,0,11.9,11.9-11.9,11.9Zm-25,0,11.9,11.9-11.9,11.9Zm-25,0,11.9,11.9-11.9,11.9Zm-25,0,11.9,11.9-11.9,11.9Zm-25,0,11.9,11.9-11.9,11.9Zm-25,0,11.9,11.9-11.9,11.9Zm-25,0,11.9,11.9-11.9,11.9Zm-.5,48.793-11.9-11.9,11.9-11.9Zm-.353-24.147-11.9,11.9-11.9-11.9Zm-24.147.354,11.9,11.9-11.9,11.9Zm12.25,12.25,11.9,11.9H125.6ZM149.75,199.4l-11.9-11.9,11.9-11.9Zm-.353-24.146-11.9,11.9-11.9-11.9Zm-24.147.354,11.9,11.9-11.9,11.9Zm12.25,12.25,11.9,11.9H125.6ZM149.75,224.4l-11.9-11.9,11.9-11.9Zm-.353-24.148-11.9,11.9-11.9-11.9Zm-24.147.354,11.9,11.9-11.9,11.9Zm12.25,12.25,11.9,11.9H125.6ZM149.75,249.4l-11.9-11.9,11.9-11.9Zm-.353-24.146-11.9,11.9-11.9-11.9Zm-24.147.353,11.9,11.9-11.9,11.9Zm12.25,12.25,11.9,11.9H125.6ZM149.75,274.4l-11.9-11.9,11.9-11.9Zm-.353-24.146-11.9,11.9-11.9-11.9Zm-24.147.353,11.9,11.9-11.9,11.9Zm12.25,12.25,11.9,11.9H125.6ZM149.75,299.4l-11.9-11.9,11.9-11.9Zm-.353-24.146-11.9,11.9-11.9-11.9Zm-24.147.353,11.9,11.9-11.9,11.9Zm12.25,12.25,11.9,11.9H125.6ZM149.75,324.4l-11.9-11.9,11.9-11.9Zm-.353-24.146-11.9,11.9-11.9-11.9Zm-24.147.353,11.9,11.9-11.9,11.9Zm12.25,12.25,11.9,11.9H125.6ZM149.75,349.4l-11.9-11.9,11.9-11.9Zm-.353-24.146-11.9,11.9-11.9-11.9Zm-24.147.353,11.9,11.9-11.9,11.9Zm12.25,12.25,11.9,11.9H125.6Zm11.9,12.4-11.9,11.9-11.9-11.9Zm-24.147.353,11.9,11.9-11.9,11.9Zm24.5,23.792-11.9-11.9,11.9-11.9Zm25,0-11.9-11.9,11.9-11.9Zm25,0-11.9-11.9,11.9-11.9Zm25,0-11.9-11.9,11.9-11.9Zm25,0-11.9-11.9,11.9-11.9Zm25,0-11.9-11.9,11.9-11.9Zm25,0-11.9-11.9,11.9-11.9Zm25,0-11.9-11.9,11.9-11.9Zm25,0-11.9-11.9,11.9-11.9Zm.5-48.792,11.9,11.9-11.9,11.9Zm.353,24.147,11.9-11.9,11.9,11.9Zm24.147-.354-11.9-11.9,11.9-11.9Zm-12.25-12.25-11.9-11.9H374.4ZM350.25,300.6l11.9,11.9-11.9,11.9Zm.353,24.147,11.9-11.9,11.9,11.9Zm24.147-.354-11.9-11.9,11.9-11.9Zm-12.25-12.25-11.9-11.9H374.4ZM350.25,275.6l11.9,11.9-11.9,11.9Zm.353,24.147,11.9-11.9,11.9,11.9Zm24.147-.354-11.9-11.9,11.9-11.9Zm-12.25-12.25-11.9-11.9H374.4ZM350.25,250.6l11.9,11.9-11.9,11.9Zm.353,24.147,11.9-11.9,11.9,11.9Zm24.147-.354-11.9-11.9,11.9-11.9Zm-12.25-12.25-11.9-11.9H374.4ZM350.25,225.6l11.9,11.9-11.9,11.9Zm.353,24.147,11.9-11.9,11.9,11.9Zm24.147-.354-11.9-11.9,11.9-11.9Zm-12.25-12.25-11.9-11.9H374.4ZM350.25,200.6l11.9,11.9-11.9,11.9Zm.353,24.148,11.9-11.9,11.9,11.9Zm24.147-.354-11.9-11.9,11.9-11.9ZM362.5,212.145l-11.9-11.9H374.4ZM350.25,175.6l11.9,11.9-11.9,11.9Zm.353,24.146,11.9-11.9,11.9,11.9Zm24.147-.354-11.9-11.9,11.9-11.9Zm-12.25-12.25-11.9-11.9H374.4ZM350.25,150.6l11.9,11.9-11.9,11.9Zm.353,24.146,11.9-11.9,11.9,11.9Zm24.147-.353-11.9-11.9,11.9-11.9Zm-12.25-12.25-11.9-11.9H374.4ZM350.25,125.6l11.9,11.9-11.9,11.9Zm.353,24.146,11.9-11.9,11.9,11.9Zm24.147-.354-11.9-11.9,11.9-11.9Zm-12.25-12.25-11.9-11.9H374.4Zm-11.9-12.4,11.9-11.9,11.9,11.9Zm24.147-.354-11.9-11.9,11.9-11.9ZM350.25,100.6l11.9,11.9-11.9,11.9Zm-25,0,11.9,11.9-11.9,11.9Zm-25,0,11.9,11.9-11.9,11.9Zm-25,0,11.9,11.9-11.9,11.9Zm-25,0,11.9,11.9-11.9,11.9Zm-25,0,11.9,11.9-11.9,11.9Zm-25,0,11.9,11.9-11.9,11.9Zm-25,0,11.9,11.9-11.9,11.9Zm-25,0,11.9,11.9-11.9,11.9Zm-25,0,11.9,11.9-11.9,11.9Zm-.5,48.792-11.9-11.9,11.9-11.9Zm-.353-24.146-11.9,11.9-11.9-11.9Zm-24.147.354,11.9,11.9-11.9,11.9Zm12.25,12.25,11.9,11.9H100.6ZM124.75,174.4l-11.9-11.9,11.9-11.9Zm-.353-24.147-11.9,11.9-11.9-11.9Zm-24.147.354,11.9,11.9-11.9,11.9Zm12.25,12.25,11.9,11.9H100.6ZM124.75,199.4l-11.9-11.9,11.9-11.9Zm-.353-24.146-11.9,11.9-11.9-11.9Zm-24.147.354,11.9,11.9-11.9,11.9Zm12.25,12.25,11.9,11.9H100.6ZM124.75,224.4l-11.9-11.9,11.9-11.9Zm-.353-24.148-11.9,11.9-11.9-11.9Zm-24.147.354,11.9,11.9-11.9,11.9Zm12.25,12.25,11.9,11.9H100.6ZM124.75,249.4l-11.9-11.9,11.9-11.9Zm-.353-24.146-11.9,11.9-11.9-11.9Zm-24.147.353,11.9,11.9-11.9,11.9Zm12.25,12.25,11.9,11.9H100.6ZM124.75,274.4l-11.9-11.9,11.9-11.9Zm-.353-24.146-11.9,11.9-11.9-11.9Zm-24.147.353,11.9,11.9-11.9,11.9Zm12.25,12.25,11.9,11.9H100.6ZM124.75,299.4l-11.9-11.9,11.9-11.9Zm-.353-24.146-11.9,11.9-11.9-11.9Zm-24.147.353,11.9,11.9-11.9,11.9Zm12.25,12.25,11.9,11.9H100.6ZM124.75,324.4l-11.9-11.9,11.9-11.9Zm-.353-24.146-11.9,11.9-11.9-11.9Zm-24.147.353,11.9,11.9-11.9,11.9Zm12.25,12.25,11.9,11.9H100.6ZM124.75,349.4l-11.9-11.9,11.9-11.9Zm-.353-24.146-11.9,11.9-11.9-11.9Zm-24.147.353,11.9,11.9-11.9,11.9Zm12.25,12.25,11.9,11.9H100.6ZM124.75,374.4l-11.9-11.9,11.9-11.9Zm-.353-24.145-11.9,11.9-11.9-11.9Zm-24.147.353,11.9,11.9-11.9,11.9Zm12.25,12.25,11.9,11.9H100.6Zm11.9,12.4-11.9,11.9-11.9-11.9Zm-24.147.354,11.9,11.9-11.9,11.9Zm24.5,23.792-11.9-11.9,11.9-11.9Zm25,0-11.9-11.9,11.9-11.9Zm25,0-11.9-11.9,11.9-11.9Zm25,0-11.9-11.9,11.9-11.9Zm25,0-11.9-11.9,11.9-11.9Zm25,0-11.9-11.9,11.9-11.9Zm25,0-11.9-11.9,11.9-11.9Zm25,0-11.9-11.9,11.9-11.9Zm25,0-11.9-11.9,11.9-11.9Zm25,0-11.9-11.9,11.9-11.9Zm25,0-11.9-11.9,11.9-11.9Zm.5-48.792,11.9,11.9-11.9,11.9Zm.353,24.146,11.9-11.9,11.9,11.9Zm24.147-.354-11.9-11.9,11.9-11.9ZM387.5,362.147l-11.9-11.9H399.4ZM375.25,325.6l11.9,11.9-11.9,11.9Zm.353,24.147,11.9-11.9,11.9,11.9Zm24.147-.354-11.9-11.9,11.9-11.9Zm-12.25-12.25-11.9-11.9H399.4ZM375.25,300.6l11.9,11.9-11.9,11.9Zm.353,24.147,11.9-11.9,11.9,11.9Zm24.147-.354-11.9-11.9,11.9-11.9Zm-12.25-12.25-11.9-11.9H399.4ZM375.25,275.6l11.9,11.9-11.9,11.9Zm.353,24.147,11.9-11.9,11.9,11.9Zm24.147-.354-11.9-11.9,11.9-11.9Zm-12.25-12.25-11.9-11.9H399.4ZM375.25,250.6l11.9,11.9-11.9,11.9Zm.353,24.147,11.9-11.9,11.9,11.9Zm24.147-.354-11.9-11.9,11.9-11.9Zm-12.25-12.25-11.9-11.9H399.4ZM375.25,225.6l11.9,11.9-11.9,11.9Zm.353,24.147,11.9-11.9,11.9,11.9Zm24.147-.354-11.9-11.9,11.9-11.9Zm-12.25-12.25-11.9-11.9H399.4ZM375.25,200.6l11.9,11.9-11.9,11.9Zm.353,24.148,11.9-11.9,11.9,11.9Zm24.147-.354-11.9-11.9,11.9-11.9ZM387.5,212.145l-11.9-11.9H399.4ZM375.25,175.6l11.9,11.9-11.9,11.9Zm.353,24.146,11.9-11.9,11.9,11.9Zm24.147-.354-11.9-11.9,11.9-11.9Zm-12.25-12.25-11.9-11.9H399.4ZM375.25,150.6l11.9,11.9-11.9,11.9Zm.353,24.146,11.9-11.9,11.9,11.9Zm24.147-.353-11.9-11.9,11.9-11.9Zm-12.25-12.25-11.9-11.9H399.4ZM375.25,125.6l11.9,11.9-11.9,11.9Zm.353,24.146,11.9-11.9,11.9,11.9Zm24.147-.354-11.9-11.9,11.9-11.9Zm-12.25-12.25-11.9-11.9H399.4ZM375.25,100.6l11.9,11.9-11.9,11.9Zm.353,24.146,11.9-11.9,11.9,11.9Zm24.147-.354-11.9-11.9,11.9-11.9Zm-12.25-12.25-11.9-11.9H399.4Zm-11.9-12.4,11.9-11.9,11.9,11.9ZM399.75,99.4l-11.9-11.9,11.9-11.9ZM375.25,75.6l11.9,11.9-11.9,11.9Zm-25,0,11.9,11.9-11.9,11.9Zm-25,0,11.9,11.9-11.9,11.9Zm-25,0,11.9,11.9-11.9,11.9Zm-25,0,11.9,11.9-11.9,11.9Zm-25,0,11.9,11.9-11.9,11.9Zm-25,0,11.9,11.9-11.9,11.9Zm-25,0,11.9,11.9-11.9,11.9Zm-25,0,11.9,11.9-11.9,11.9Zm-25,0,11.9,11.9-11.9,11.9Zm-25,0,11.9,11.9-11.9,11.9Zm-25,0,11.9,11.9-11.9,11.9Zm-.5,48.792-11.9-11.9,11.9-11.9ZM99.4,100.249l-11.9,11.9-11.9-11.9ZM75.25,100.6l11.9,11.9-11.9,11.9Zm12.25,12.25,11.9,11.9H75.6ZM99.75,149.4l-11.9-11.9,11.9-11.9ZM99.4,125.249l-11.9,11.9-11.9-11.9ZM75.25,125.6l11.9,11.9-11.9,11.9Zm12.25,12.25,11.9,11.9H75.6ZM99.75,174.4l-11.9-11.9,11.9-11.9ZM99.4,150.249l-11.9,11.9-11.9-11.9ZM75.25,150.6l11.9,11.9-11.9,11.9Zm12.25,12.25,11.9,11.9H75.6ZM99.75,199.4l-11.9-11.9,11.9-11.9ZM99.4,175.249l-11.9,11.9-11.9-11.9ZM75.25,175.6l11.9,11.9-11.9,11.9Zm12.25,12.25,11.9,11.9H75.6ZM99.75,224.4l-11.9-11.9,11.9-11.9ZM99.4,200.249l-11.9,11.9-11.9-11.9ZM75.25,200.6l11.9,11.9-11.9,11.9Zm12.25,12.25,11.9,11.9H75.6ZM99.75,249.4l-11.9-11.9,11.9-11.9ZM99.4,225.251l-11.9,11.9-11.9-11.9ZM75.25,225.6l11.9,11.9-11.9,11.9Zm12.25,12.25,11.9,11.9H75.6ZM99.75,274.4l-11.9-11.9,11.9-11.9ZM99.4,250.251l-11.9,11.9-11.9-11.9ZM75.25,250.6l11.9,11.9-11.9,11.9Zm12.25,12.25,11.9,11.9H75.6ZM99.75,299.4l-11.9-11.9,11.9-11.9ZM99.4,275.251l-11.9,11.9-11.9-11.9ZM75.25,275.6l11.9,11.9-11.9,11.9Zm12.25,12.25,11.9,11.9H75.6ZM99.75,324.4l-11.9-11.9,11.9-11.9ZM99.4,300.251l-11.9,11.9-11.9-11.9ZM75.25,300.6l11.9,11.9-11.9,11.9Zm12.25,12.25,11.9,11.9H75.6ZM99.75,349.4l-11.9-11.9,11.9-11.9ZM99.4,325.251l-11.9,11.9-11.9-11.9ZM75.25,325.6l11.9,11.9-11.9,11.9Zm12.25,12.25,11.9,11.9H75.6ZM99.75,374.4l-11.9-11.9,11.9-11.9ZM99.4,350.251l-11.9,11.9-11.9-11.9ZM75.25,350.6l11.9,11.9-11.9,11.9Zm12.25,12.25,11.9,11.9H75.6ZM99.75,399.4l-11.9-11.9,11.9-11.9ZM99.4,375.25l-11.9,11.9-11.9-11.9ZM75.25,375.6l11.9,11.9-11.9,11.9Zm12.25,12.25,11.9,11.9H75.6Zm11.9,12.4-11.9,11.9-11.9-11.9ZM75.25,400.6l11.9,11.9-11.9,11.9ZM99.75,424.4l-11.9-11.9,11.9-11.9Zm25,0-11.9-11.9,11.9-11.9Zm25,0-11.9-11.9,11.9-11.9Zm25,0-11.9-11.9,11.9-11.9Zm25,0-11.9-11.9,11.9-11.9Zm25,0-11.9-11.9,11.9-11.9Zm25,0-11.9-11.9,11.9-11.9Zm25,0-11.9-11.9,11.9-11.9Zm25,0-11.9-11.9,11.9-11.9Zm25,0-11.9-11.9,11.9-11.9Zm25,0-11.9-11.9,11.9-11.9Zm25,0-11.9-11.9,11.9-11.9Zm25,0-11.9-11.9,11.9-11.9Zm.5-48.792,11.9,11.9-11.9,11.9Zm.353,24.146,11.9-11.9,11.9,11.9Zm24.147-.354-11.9-11.9,11.9-11.9Zm-12.25-12.25-11.9-11.9H424.4ZM400.25,350.6l11.9,11.9-11.9,11.9Zm.353,24.146,11.9-11.9,11.9,11.9Zm24.147-.354-11.9-11.9,11.9-11.9ZM412.5,362.147l-11.9-11.9H424.4ZM400.25,325.6l11.9,11.9-11.9,11.9Zm.353,24.147,11.9-11.9,11.9,11.9Zm24.147-.354-11.9-11.9,11.9-11.9Zm-12.25-12.25-11.9-11.9H424.4ZM400.25,300.6l11.9,11.9-11.9,11.9Zm.353,24.147,11.9-11.9,11.9,11.9Zm24.147-.354-11.9-11.9,11.9-11.9Zm-12.25-12.25-11.9-11.9H424.4ZM400.25,275.6l11.9,11.9-11.9,11.9Zm.353,24.147,11.9-11.9,11.9,11.9Zm24.147-.354-11.9-11.9,11.9-11.9Zm-12.25-12.25-11.9-11.9H424.4ZM400.25,250.6l11.9,11.9-11.9,11.9Zm.353,24.147,11.9-11.9,11.9,11.9Zm24.147-.354-11.9-11.9,11.9-11.9Zm-12.25-12.25-11.9-11.9H424.4ZM400.25,225.6l11.9,11.9-11.9,11.9Zm.353,24.147,11.9-11.9,11.9,11.9Zm24.147-.354-11.9-11.9,11.9-11.9Zm-12.25-12.25-11.9-11.9H424.4ZM400.25,200.6l11.9,11.9-11.9,11.9Zm.353,24.148,11.9-11.9,11.9,11.9Zm24.147-.354-11.9-11.9,11.9-11.9ZM412.5,212.145l-11.9-11.9H424.4ZM400.25,175.6l11.9,11.9-11.9,11.9Zm.353,24.146,11.9-11.9,11.9,11.9Zm24.147-.354-11.9-11.9,11.9-11.9Zm-12.25-12.25-11.9-11.9H424.4ZM400.25,150.6l11.9,11.9-11.9,11.9Zm.353,24.146,11.9-11.9,11.9,11.9Zm24.147-.353-11.9-11.9,11.9-11.9Zm-12.25-12.25-11.9-11.9H424.4ZM400.25,125.6l11.9,11.9-11.9,11.9Zm.353,24.146,11.9-11.9,11.9,11.9Zm24.147-.354-11.9-11.9,11.9-11.9Zm-12.25-12.25-11.9-11.9H424.4ZM400.25,100.6l11.9,11.9-11.9,11.9Zm.353,24.146,11.9-11.9,11.9,11.9Zm24.147-.354-11.9-11.9,11.9-11.9Zm-12.25-12.25-11.9-11.9H424.4ZM400.25,75.6l11.9,11.9-11.9,11.9Zm.353,24.146,11.9-11.9,11.9,11.9ZM424.75,99.4l-11.9-11.9,11.9-11.9ZM412.5,87.145l-11.9-11.9H424.4Zm-11.9-12.4,11.9-11.9,11.9,11.9ZM424.75,74.4,412.853,62.5l11.9-11.9ZM400.25,50.6l11.9,11.9L400.25,74.4Zm-25,0,11.9,11.9L375.25,74.4Zm-25,0,11.9,11.9L350.25,74.4Zm-25,0,11.9,11.9L325.25,74.4Zm-25,0,11.9,11.9L300.25,74.4Zm-25,0,11.9,11.9L275.25,74.4Zm-25,0,11.9,11.9L250.25,74.4Zm-25,0,11.9,11.9L225.25,74.4Zm-25,0,11.9,11.9L200.25,74.4Zm-25,0,11.9,11.9L175.25,74.4Zm-25,0,11.9,11.9L150.25,74.4Zm-25,0,11.9,11.9L125.25,74.4Zm-25,0,11.9,11.9L100.25,74.4Zm-25,0,11.9,11.9L75.25,74.4ZM74.75,99.4l-11.9-11.9,11.9-11.9ZM74.4,75.249l-11.9,11.9-11.9-11.9ZM50.25,75.6l11.9,11.9L50.25,99.4ZM62.5,87.853l11.9,11.9H50.6ZM74.75,124.4l-11.9-11.9,11.9-11.9ZM74.4,100.249l-11.9,11.9-11.9-11.9ZM50.25,100.6l11.9,11.9-11.9,11.9Zm12.25,12.25,11.9,11.9H50.6ZM74.75,149.4l-11.9-11.9,11.9-11.9ZM74.4,125.249l-11.9,11.9-11.9-11.9ZM50.25,125.6l11.9,11.9-11.9,11.9Zm12.25,12.25,11.9,11.9H50.6ZM74.75,174.4l-11.9-11.9,11.9-11.9ZM74.4,150.249l-11.9,11.9-11.9-11.9ZM50.25,150.6l11.9,11.9-11.9,11.9Zm12.25,12.25,11.9,11.9H50.6ZM74.75,199.4l-11.9-11.9,11.9-11.9ZM74.4,175.249l-11.9,11.9-11.9-11.9ZM50.25,175.6l11.9,11.9-11.9,11.9Zm12.25,12.25,11.9,11.9H50.6ZM74.75,224.4l-11.9-11.9,11.9-11.9ZM74.4,200.249l-11.9,11.9-11.9-11.9ZM50.25,200.6l11.9,11.9-11.9,11.9Zm12.25,12.25,11.9,11.9H50.6ZM74.75,249.4l-11.9-11.9,11.9-11.9ZM74.4,225.251l-11.9,11.9-11.9-11.9ZM50.25,225.6l11.9,11.9-11.9,11.9Zm12.25,12.25,11.9,11.9H50.6ZM74.75,274.4l-11.9-11.9,11.9-11.9ZM74.4,250.251l-11.9,11.9-11.9-11.9ZM50.25,250.6l11.9,11.9-11.9,11.9Zm12.25,12.25,11.9,11.9H50.6ZM74.75,299.4l-11.9-11.9,11.9-11.9ZM74.4,275.251l-11.9,11.9-11.9-11.9ZM50.25,275.6l11.9,11.9-11.9,11.9Zm12.25,12.25,11.9,11.9H50.6ZM74.75,324.4l-11.9-11.9,11.9-11.9ZM74.4,300.251l-11.9,11.9-11.9-11.9ZM50.25,300.6l11.9,11.9-11.9,11.9Zm12.25,12.25,11.9,11.9H50.6ZM74.75,349.4l-11.9-11.9,11.9-11.9ZM74.4,325.251l-11.9,11.9-11.9-11.9ZM50.25,325.6l11.9,11.9-11.9,11.9Zm12.25,12.25,11.9,11.9H50.6ZM74.75,374.4l-11.9-11.9,11.9-11.9ZM74.4,350.251l-11.9,11.9-11.9-11.9ZM50.25,350.6l11.9,11.9-11.9,11.9Zm12.25,12.25,11.9,11.9H50.6ZM74.75,399.4l-11.9-11.9,11.9-11.9ZM74.4,375.25l-11.9,11.9-11.9-11.9ZM50.25,375.6l11.9,11.9-11.9,11.9Zm12.25,12.25,11.9,11.9H50.6ZM74.75,424.4l-11.9-11.9,11.9-11.9ZM74.4,400.25l-11.9,11.9-11.9-11.9ZM50.25,400.6l11.9,11.9-11.9,11.9Zm12.25,12.25,11.9,11.9H50.6Zm11.9,12.4-11.9,11.9-11.9-11.9ZM50.25,425.6l11.9,11.9-11.9,11.9ZM74.75,449.4l-11.9-11.9,11.9-11.9Zm25,0-11.9-11.9,11.9-11.9Zm25,0-11.9-11.9,11.9-11.9Zm25,0-11.9-11.9,11.9-11.9Zm25,0-11.9-11.9,11.9-11.9Zm25,0-11.9-11.9,11.9-11.9Zm25,0-11.9-11.9,11.9-11.9Zm25,0-11.9-11.9,11.9-11.9Zm25,0-11.9-11.9,11.9-11.9Zm25,0-11.9-11.9,11.9-11.9Zm25,0-11.9-11.9,11.9-11.9Zm25,0-11.9-11.9,11.9-11.9Zm25,0-11.9-11.9,11.9-11.9Zm25,0-11.9-11.9,11.9-11.9Zm25,0-11.9-11.9,11.9-11.9Zm.5-48.792,11.9,11.9-11.9,11.9Zm.353,24.146,11.9-11.9,11.9,11.9Zm24.147-.354-11.9-11.9,11.9-11.9Zm-12.25-12.25-11.9-11.9H449.4ZM425.25,375.6l11.9,11.9-11.9,11.9Zm.353,24.146,11.9-11.9,11.9,11.9Zm24.147-.354-11.9-11.9,11.9-11.9Zm-12.25-12.25-11.9-11.9H449.4ZM425.25,350.6l11.9,11.9-11.9,11.9Zm.353,24.146,11.9-11.9,11.9,11.9Zm24.147-.354-11.9-11.9,11.9-11.9ZM437.5,362.147l-11.9-11.9H449.4ZM425.25,325.6l11.9,11.9-11.9,11.9Zm.353,24.147,11.9-11.9,11.9,11.9Zm24.147-.354-11.9-11.9,11.9-11.9Zm-12.25-12.25-11.9-11.9H449.4ZM425.25,300.6l11.9,11.9-11.9,11.9Zm.353,24.147,11.9-11.9,11.9,11.9Zm24.147-.354-11.9-11.9,11.9-11.9Zm-12.25-12.25-11.9-11.9H449.4ZM425.25,275.6l11.9,11.9-11.9,11.9Zm.353,24.147,11.9-11.9,11.9,11.9Zm24.147-.354-11.9-11.9,11.9-11.9Zm-12.25-12.25-11.9-11.9H449.4ZM425.25,250.6l11.9,11.9-11.9,11.9Zm.353,24.147,11.9-11.9,11.9,11.9Zm24.147-.354-11.9-11.9,11.9-11.9Zm-12.25-12.25-11.9-11.9H449.4ZM425.25,225.6l11.9,11.9-11.9,11.9Zm.353,24.147,11.9-11.9,11.9,11.9Zm24.147-.354-11.9-11.9,11.9-11.9Zm-12.25-12.25-11.9-11.9H449.4ZM425.25,200.6l11.9,11.9-11.9,11.9Zm.353,24.148,11.9-11.9,11.9,11.9Zm24.147-.354-11.9-11.9,11.9-11.9ZM437.5,212.145l-11.9-11.9H449.4ZM425.25,175.6l11.9,11.9-11.9,11.9Zm.353,24.146,11.9-11.9,11.9,11.9Zm24.147-.354-11.9-11.9,11.9-11.9Zm-12.25-12.25-11.9-11.9H449.4ZM425.25,150.6l11.9,11.9-11.9,11.9Zm.353,24.146,11.9-11.9,11.9,11.9Zm24.147-.353-11.9-11.9,11.9-11.9Zm-12.25-12.25-11.9-11.9H449.4ZM425.25,125.6l11.9,11.9-11.9,11.9Zm.353,24.146,11.9-11.9,11.9,11.9Zm24.147-.354-11.9-11.9,11.9-11.9Zm-12.25-12.25-11.9-11.9H449.4ZM425.25,100.6l11.9,11.9-11.9,11.9Zm.353,24.146,11.9-11.9,11.9,11.9Zm24.147-.354-11.9-11.9,11.9-11.9Zm-12.25-12.25-11.9-11.9H449.4ZM425.25,75.6l11.9,11.9-11.9,11.9Zm.353,24.146,11.9-11.9,11.9,11.9ZM449.75,99.4l-11.9-11.9,11.9-11.9ZM437.5,87.145l-11.9-11.9H449.4ZM425.25,50.6l11.9,11.9L425.25,74.4Zm.353,24.146,11.9-11.9,11.9,11.9ZM449.75,74.4,437.853,62.5l11.9-11.9ZM437.5,62.146l-11.9-11.9H449.4Zm-11.9-12.4,11.9-11.9,11.9,11.9ZM449.75,49.4l-11.9-11.9,11.9-11.9ZM425.25,25.6l11.9,11.9-11.9,11.9Zm-25,0,11.9,11.9-11.9,11.9Zm-25,0,11.9,11.9-11.9,11.9Zm-25,0,11.9,11.9-11.9,11.9Zm-25,0,11.9,11.9-11.9,11.9Zm-25,0,11.9,11.9-11.9,11.9Zm-25,0,11.9,11.9-11.9,11.9Zm-25,0,11.9,11.9-11.9,11.9Zm-25,0,11.9,11.9-11.9,11.9Zm-25,0,11.9,11.9-11.9,11.9Zm-25,0,11.9,11.9-11.9,11.9Zm-25,0,11.9,11.9-11.9,11.9Zm-25,0,11.9,11.9-11.9,11.9Zm-25,0,11.9,11.9-11.9,11.9Zm-25,0,11.9,11.9L75.25,49.4Zm-25,0,11.9,11.9L50.25,49.4ZM49.75,74.4,37.854,62.5l11.9-11.9ZM49.4,50.25l-11.9,11.9L25.6,50.25ZM25.25,50.6l11.9,11.9L25.25,74.4ZM37.5,62.853l11.9,11.9H25.6ZM49.75,99.4l-11.9-11.9,11.9-11.9ZM49.4,75.249l-11.9,11.9-11.9-11.9ZM25.25,75.6l11.9,11.9L25.25,99.4ZM37.5,87.853l11.9,11.9H25.6ZM49.75,124.4l-11.9-11.9,11.9-11.9ZM49.4,100.249l-11.9,11.9-11.9-11.9ZM25.25,100.6l11.9,11.9-11.9,11.9Zm12.25,12.25,11.9,11.9H25.6ZM49.75,149.4l-11.9-11.9,11.9-11.9ZM49.4,125.249l-11.9,11.9-11.9-11.9ZM25.25,125.6l11.9,11.9-11.9,11.9Zm12.25,12.25,11.9,11.9H25.6ZM49.75,174.4l-11.9-11.9,11.9-11.9ZM49.4,150.249l-11.9,11.9-11.9-11.9ZM25.25,150.6l11.9,11.9-11.9,11.9Zm12.25,12.25,11.9,11.9H25.6ZM49.75,199.4l-11.9-11.9,11.9-11.9ZM49.4,175.249l-11.9,11.9-11.9-11.9ZM25.25,175.6l11.9,11.9-11.9,11.9Zm12.25,12.25,11.9,11.9H25.6ZM49.75,224.4l-11.9-11.9,11.9-11.9ZM49.4,200.249l-11.9,11.9-11.9-11.9ZM25.25,200.6l11.9,11.9-11.9,11.9Zm12.25,12.25,11.9,11.9H25.6ZM49.75,249.4l-11.9-11.9,11.9-11.9ZM49.4,225.251l-11.9,11.9-11.9-11.9ZM25.25,225.6l11.9,11.9-11.9,11.9Zm12.25,12.25,11.9,11.9H25.6ZM49.75,274.4l-11.9-11.9,11.9-11.9ZM49.4,250.251l-11.9,11.9-11.9-11.9ZM25.25,250.6l11.9,11.9-11.9,11.9Zm12.25,12.25,11.9,11.9H25.6ZM49.75,299.4l-11.9-11.9,11.9-11.9ZM49.4,275.251l-11.9,11.9-11.9-11.9ZM25.25,275.6l11.9,11.9-11.9,11.9Zm12.25,12.25,11.9,11.9H25.6ZM49.75,324.4l-11.9-11.9,11.9-11.9ZM49.4,300.251l-11.9,11.9-11.9-11.9ZM25.25,300.6l11.9,11.9-11.9,11.9Zm12.25,12.25,11.9,11.9H25.6ZM49.75,349.4l-11.9-11.9,11.9-11.9ZM49.4,325.251l-11.9,11.9-11.9-11.9ZM25.25,325.6l11.9,11.9-11.9,11.9Zm12.25,12.25,11.9,11.9H25.6ZM49.75,374.4l-11.9-11.9,11.9-11.9ZM49.4,350.251l-11.9,11.9-11.9-11.9ZM25.25,350.6l11.9,11.9-11.9,11.9Zm12.25,12.25,11.9,11.9H25.6ZM49.75,399.4l-11.9-11.9,11.9-11.9ZM49.4,375.25l-11.9,11.9-11.9-11.9ZM25.25,375.6l11.9,11.9-11.9,11.9Zm12.25,12.25,11.9,11.9H25.6ZM49.75,424.4l-11.9-11.9,11.9-11.9ZM49.4,400.25l-11.9,11.9-11.9-11.9ZM25.25,400.6l11.9,11.9-11.9,11.9Zm12.25,12.25,11.9,11.9H25.6ZM49.75,449.4l-11.9-11.9,11.9-11.9ZM49.4,425.25l-11.9,11.9-11.9-11.9ZM25.25,425.6l11.9,11.9-11.9,11.9Zm12.25,12.25,11.9,11.9H25.6Zm11.9,12.4-11.9,11.9-11.9-11.9ZM25.25,450.6l11.9,11.9-11.9,11.9ZM49.75,474.4l-11.9-11.9,11.9-11.9Zm25,0-11.9-11.9,11.9-11.9Zm25,0-11.9-11.9,11.9-11.9Zm25,0-11.9-11.9,11.9-11.9Zm25,0-11.9-11.9,11.9-11.9Zm25,0-11.9-11.9,11.9-11.9Zm25,0-11.9-11.9,11.9-11.9Zm25,0-11.9-11.9,11.9-11.9Zm25,0-11.9-11.9,11.9-11.9Zm25,0-11.9-11.9,11.9-11.9Zm25,0-11.9-11.9,11.9-11.9Zm25,0-11.9-11.9,11.9-11.9Zm25,0-11.9-11.9,11.9-11.9Zm25,0-11.9-11.9,11.9-11.9Zm25,0-11.9-11.9,11.9-11.9Zm25,0-11.9-11.9,11.9-11.9Zm25,0-11.9-11.9,11.9-11.9Zm.5-48.792,11.9,11.9-11.9,11.9Zm.353,24.146,11.9-11.9,11.9,11.9Zm24.147-.354-11.9-11.9,11.9-11.9Zm-12.25-12.25-11.9-11.9H474.4ZM450.25,400.6l11.9,11.9-11.9,11.9Zm.353,24.146,11.9-11.9,11.9,11.9Zm24.147-.354-11.9-11.9,11.9-11.9Zm-12.25-12.25-11.9-11.9H474.4ZM450.25,375.6l11.9,11.9-11.9,11.9Zm.353,24.146,11.9-11.9,11.9,11.9Zm24.147-.354-11.9-11.9,11.9-11.9Zm-12.25-12.25-11.9-11.9H474.4ZM450.25,350.6l11.9,11.9-11.9,11.9Zm.353,24.146,11.9-11.9,11.9,11.9Zm24.147-.354-11.9-11.9,11.9-11.9ZM462.5,362.147l-11.9-11.9H474.4ZM450.25,325.6l11.9,11.9-11.9,11.9Zm.353,24.147,11.9-11.9,11.9,11.9Zm24.147-.354-11.9-11.9,11.9-11.9Zm-12.25-12.25-11.9-11.9H474.4ZM450.25,300.6l11.9,11.9-11.9,11.9Zm.353,24.147,11.9-11.9,11.9,11.9Zm24.147-.354-11.9-11.9,11.9-11.9Zm-12.25-12.25-11.9-11.9H474.4ZM450.25,275.6l11.9,11.9-11.9,11.9Zm.353,24.147,11.9-11.9,11.9,11.9Zm24.147-.354-11.9-11.9,11.9-11.9Zm-12.25-12.25-11.9-11.9H474.4ZM450.25,250.6l11.9,11.9-11.9,11.9Zm.353,24.147,11.9-11.9,11.9,11.9Zm24.147-.354-11.9-11.9,11.9-11.9Zm-12.25-12.25-11.9-11.9H474.4ZM450.25,225.6l11.9,11.9-11.9,11.9Zm.353,24.147,11.9-11.9,11.9,11.9Zm24.147-.354-11.9-11.9,11.9-11.9Zm-12.25-12.25-11.9-11.9H474.4ZM450.25,200.6l11.9,11.9-11.9,11.9Zm.353,24.148,11.9-11.9,11.9,11.9Zm24.147-.354-11.9-11.9,11.9-11.9ZM462.5,212.145l-11.9-11.9H474.4ZM450.25,175.6l11.9,11.9-11.9,11.9Zm.353,24.146,11.9-11.9,11.9,11.9Zm24.147-.354-11.9-11.9,11.9-11.9Zm-12.25-12.25-11.9-11.9H474.4ZM450.25,150.6l11.9,11.9-11.9,11.9Zm.353,24.146,11.9-11.9,11.9,11.9Zm24.147-.353-11.9-11.9,11.9-11.9Zm-12.25-12.25-11.9-11.9H474.4ZM450.25,125.6l11.9,11.9-11.9,11.9Zm.353,24.146,11.9-11.9,11.9,11.9Zm24.147-.354-11.9-11.9,11.9-11.9Zm-12.25-12.25-11.9-11.9H474.4ZM450.25,100.6l11.9,11.9-11.9,11.9Zm.353,24.146,11.9-11.9,11.9,11.9Zm24.147-.354-11.9-11.9,11.9-11.9Zm-12.25-12.25-11.9-11.9H474.4ZM450.25,75.6l11.9,11.9-11.9,11.9Zm.353,24.146,11.9-11.9,11.9,11.9ZM474.75,99.4l-11.9-11.9,11.9-11.9ZM462.5,87.145l-11.9-11.9H474.4ZM450.25,50.6l11.9,11.9L450.25,74.4Zm.353,24.146,11.9-11.9,11.9,11.9ZM474.75,74.4,462.853,62.5l11.9-11.9ZM462.5,62.146l-11.9-11.9H474.4ZM450.25,25.6l11.9,11.9-11.9,11.9ZM450.6,49.75l11.9-11.9,11.9,11.9ZM474.75,49.4l-11.9-11.9,11.9-11.9ZM462.5,37.146l-11.9-11.9H474.4Zm-11.9-12.4,11.9-11.9,11.9,11.9Zm-.353-.354V.6l11.9,11.9Zm24.5,0-11.9-11.9L474.75.6ZM474.4.25l-11.9,11.9L450.6.25Zm-25,0-11.9,11.9L425.6.25Zm-25,0-11.9,11.9L400.6.25Zm-25,0-11.9,11.9L375.6.25Zm-25,0-11.9,11.9L350.6.25Zm-25,0-11.9,11.9L325.6.25Zm-25,0-11.9,11.9L300.6.25Zm-25,0-11.9,11.9L275.6.25Zm-25,0-11.9,11.9L250.6.25Zm-25,0-11.9,11.9L225.6.25Zm-25,0-11.9,11.9L200.6.25Zm-25,0-11.9,11.9L175.6.25Zm-25,0-11.9,11.9L150.6.25Zm-25,0-11.9,11.9L125.6.25Zm-25,0-11.9,11.9L100.6.25Zm-25,0-11.9,11.9L75.6.25Zm-25,0-11.9,11.9L50.6.25Zm-25,0-11.9,11.9L25.6.25ZM24.75,24.4l-11.9-11.9L24.75.6ZM24.4.25l-11.9,11.9L.6.25ZM12.147,12.5.25,24.4V.6ZM24.4,24.75H.6l11.9-11.9ZM24.75,49.4l-11.9-11.9,11.9-11.9ZM12.5,37.146.6,25.25H24.4Zm-.353.354L.25,49.4V25.6ZM24.4,49.75H.6l11.9-11.9ZM24.75,74.4,12.854,62.5l11.9-11.9ZM12.5,62.146.6,50.25H24.4Zm-.353.354L.25,74.4V50.6ZM24.4,74.749H.6l11.9-11.9ZM24.75,99.4l-11.9-11.9,11.9-11.9ZM12.5,87.145.6,75.249H24.4Zm-.353.354L.25,99.4V75.6ZM24.4,99.749H.6l11.9-11.9ZM24.75,124.4l-11.9-11.9,11.9-11.9ZM12.5,112.145.6,100.249H24.4Zm-.353.354L.25,124.4V100.6Zm12.25,12.25H.6l11.9-11.9ZM24.75,149.4l-11.9-11.9,11.9-11.9ZM12.5,137.145.6,125.249H24.4Zm-.353.354L.25,149.4V125.6Zm12.25,12.25H.6l11.9-11.9ZM24.75,174.4l-11.9-11.9,11.9-11.9ZM12.5,162.146.6,150.249H24.4Zm-.353.353L.25,174.4V150.6Zm12.25,12.25H.6l11.9-11.9ZM24.75,199.4l-11.9-11.9,11.9-11.9ZM12.5,187.145.6,175.249H24.4Zm-.353.354L.25,199.4V175.6Zm12.25,12.25H.6l11.9-11.9ZM24.75,224.4l-11.9-11.9,11.9-11.9ZM12.5,212.145.6,200.249H24.4Zm-.353.354L.25,224.4V200.6ZM24.4,224.751H.6l11.9-11.9ZM24.75,249.4l-11.9-11.9,11.9-11.9ZM12.5,237.147.6,225.251H24.4Zm-.353.354L.25,249.4V225.6Zm12.25,12.25H.6l11.9-11.9ZM24.75,274.4l-11.9-11.9,11.9-11.9ZM12.5,262.147.6,250.251H24.4Zm-.353.354L.25,274.4V250.6Zm12.25,12.25H.6l11.9-11.9ZM24.75,299.4l-11.9-11.9,11.9-11.9ZM12.5,287.147.6,275.251H24.4Zm-.353.354L.25,299.4V275.6Zm12.25,12.25H.6l11.9-11.9ZM24.75,324.4l-11.9-11.9,11.9-11.9ZM12.5,312.147.6,300.251H24.4Zm-.353.354L.25,324.4V300.6Zm12.25,12.25H.6l11.9-11.9ZM24.75,349.4l-11.9-11.9,11.9-11.9ZM12.5,337.147.6,325.251H24.4Zm-.353.354L.25,349.4V325.6Zm12.25,12.25H.6l11.9-11.9ZM24.75,374.4l-11.9-11.9,11.9-11.9ZM12.5,362.147.6,350.251H24.4Zm-.353.354L.25,374.4V350.6ZM24.4,374.75H.6l11.9-11.9ZM24.75,399.4l-11.9-11.9,11.9-11.9ZM12.5,387.146.6,375.25H24.4Zm-.353.354L.25,399.4V375.6ZM24.4,399.75H.6l11.9-11.9ZM24.75,424.4l-11.9-11.9,11.9-11.9ZM12.5,412.146.6,400.25H24.4Zm-.353.354L.25,424.4V400.6ZM24.4,424.75H.6l11.9-11.9ZM24.75,449.4l-11.9-11.9,11.9-11.9ZM12.5,437.146.6,425.25H24.4Zm-.353.354L.25,449.4V425.6ZM24.4,449.75H.6l11.9-11.9ZM24.75,474.4l-11.9-11.9,11.9-11.9ZM12.5,462.146.6,450.25H24.4Zm-.353.354L.25,474.4V450.6ZM24.4,474.75H.6l11.9-11.9Zm.353.854V499.4l-11.9-11.9ZM12.5,487.146.6,475.25H24.4Zm-.353.354L.25,499.4V475.6ZM.6,499.75l11.9-11.9,11.9,11.9Zm25,0,11.9-11.9,11.9,11.9Zm25,0,11.9-11.9,11.9,11.9Zm25,0,11.9-11.9,11.9,11.9Zm25,0,11.9-11.9,11.9,11.9Zm25,0,11.9-11.9,11.9,11.9Zm25,0,11.9-11.9,11.9,11.9Zm25,0,11.9-11.9,11.9,11.9Zm25,0,11.9-11.9,11.9,11.9Zm25,0,11.9-11.9,11.9,11.9Zm25,0,11.9-11.9,11.9,11.9Zm25,0,11.9-11.9,11.9,11.9Zm25,0,11.9-11.9,11.9,11.9Zm25,0,11.9-11.9,11.9,11.9Zm25,0,11.9-11.9,11.9,11.9Zm25,0,11.9-11.9,11.9,11.9Zm25,0,11.9-11.9,11.9,11.9Zm25,0,11.9-11.9,11.9,11.9Zm25,0,11.9-11.9,11.9,11.9ZM475.25,475.6l11.9,11.9-11.9,11.9Zm.353,24.146,11.9-11.9,11.9,11.9Zm12.25-12.25,11.9-11.9V499.4ZM475.6,475.25H499.4l-11.9,11.9ZM475.25,450.6l11.9,11.9-11.9,11.9Zm12.25,12.25,11.9,11.9H475.6Zm.353-.354,11.9-11.9V474.4ZM475.6,450.25H499.4l-11.9,11.9ZM475.25,425.6l11.9,11.9-11.9,11.9Zm12.25,12.25,11.9,11.9H475.6Zm.353-.354,11.9-11.9V449.4ZM475.6,425.25H499.4l-11.9,11.9ZM475.25,400.6l11.9,11.9-11.9,11.9Zm12.25,12.25,11.9,11.9H475.6Zm.353-.354,11.9-11.9V424.4ZM475.6,400.25H499.4l-11.9,11.9ZM475.25,375.6l11.9,11.9-11.9,11.9Zm12.25,12.25,11.9,11.9H475.6Zm.353-.354,11.9-11.9V399.4ZM475.6,375.25H499.4l-11.9,11.9ZM475.25,350.6l11.9,11.9-11.9,11.9Zm12.25,12.25,11.9,11.9H475.6Zm.353-.353,11.9-11.9V374.4Zm-12.25-12.25H499.4l-11.9,11.9ZM475.25,325.6l11.9,11.9-11.9,11.9Zm12.25,12.25,11.9,11.9H475.6Zm.353-.353,11.9-11.9V349.4Zm-12.25-12.25H499.4l-11.9,11.9ZM475.25,300.6l11.9,11.9-11.9,11.9Zm12.25,12.25,11.9,11.9H475.6Zm.353-.353,11.9-11.9V324.4Zm-12.25-12.25H499.4l-11.9,11.9ZM475.25,275.6l11.9,11.9-11.9,11.9Zm12.25,12.25,11.9,11.9H475.6Zm.353-.353,11.9-11.9V299.4Zm-12.25-12.25H499.4l-11.9,11.9ZM475.25,250.6l11.9,11.9-11.9,11.9Zm12.25,12.25,11.9,11.9H475.6Zm.353-.353,11.9-11.9V274.4Zm-12.25-12.25H499.4l-11.9,11.9ZM475.25,225.6l11.9,11.9-11.9,11.9Zm12.25,12.25,11.9,11.9H475.6Zm.353-.353,11.9-11.9V249.4Zm-12.25-12.25H499.4l-11.9,11.9ZM475.25,200.6l11.9,11.9-11.9,11.9Zm12.25,12.25,11.9,11.9H475.6Zm.353-.354,11.9-11.9V224.4Zm-12.25-12.25H499.4l-11.9,11.9ZM475.25,175.6l11.9,11.9-11.9,11.9Zm12.25,12.25,11.9,11.9H475.6Zm.353-.354,11.9-11.9V199.4Zm-12.25-12.25H499.4l-11.9,11.9ZM475.25,150.6l11.9,11.9-11.9,11.9Zm12.25,12.25,11.9,11.9H475.6Zm.353-.354,11.9-11.9V174.4Zm-12.25-12.25H499.4l-11.9,11.9ZM475.25,125.6l11.9,11.9-11.9,11.9Zm12.25,12.25,11.9,11.9H475.6Zm.353-.354,11.9-11.9V149.4Zm-12.25-12.25H499.4l-11.9,11.9ZM475.25,100.6l11.9,11.9-11.9,11.9Zm12.25,12.25,11.9,11.9H475.6Zm.353-.354,11.9-11.9V124.4Zm-12.25-12.25H499.4l-11.9,11.9ZM475.25,75.6l11.9,11.9-11.9,11.9Zm12.25,12.25,11.9,11.9H475.6Zm.353-.354,11.9-11.9V99.4ZM475.6,75.249H499.4l-11.9,11.9ZM475.25,50.6l11.9,11.9L475.25,74.4Zm12.25,12.25,11.9,11.9H475.6Zm.353-.353,11.9-11.9V74.4ZM475.6,50.25H499.4l-11.9,11.9ZM475.25,25.6l11.9,11.9-11.9,11.9Zm12.25,12.25,11.9,11.9H475.6Zm.353-.353,11.9-11.9V49.4ZM475.6,25.25H499.4l-11.9,11.9Z" transform="translate(0)" fill="#d8d8d8"/></svg>